<?xml version="1.0" standalone="no"?>
<!DOCTYPE svg PUBLIC "-//W3C//DTD SVG 20010904//EN"
 "http://www.w3.org/TR/2001/REC-SVG-20010904/DTD/svg10.dtd">
<svg version="1.0" xmlns="http://www.w3.org/2000/svg"
 width="1024.000000pt" height="1024.000000pt" viewBox="0 0 1024.000000 1024.000000"
 preserveAspectRatio="xMidYMid meet">

<g transform="translate(0.000000,1024.000000) scale(0.100000,-0.100000)"
fill="#000000" stroke="none">
<path d="M0 5120 l0 -5120 5120 0 5120 0 0 5120 0 5120 -5120 0 -5120 0 0
-5120z m5492 4411 c37 -12 86 -36 110 -54 41 -32 97 -101 98 -123 0 -19 -141
8 -177 34 -64 45 -94 51 -285 58 -101 3 -247 1 -324 -4 -123 -8 -146 -12 -174
-32 -25 -18 -29 -25 -18 -32 10 -8 9 -9 -4 -5 -9 3 -19 3 -23 -1 -8 -9 -155
-30 -155 -22 0 15 73 111 99 129 96 69 176 81 511 77 252 -2 281 -4 342 -25z
m-222 -137 c-8 -1 -127 -4 -265 -6 -137 -2 -230 0 -205 3 45 6 498 9 470 3z
m-1085 -33 c33 -15 68 -37 78 -48 17 -20 17 -20 -35 -28 -53 -8 -84 -9 -176
-4 -62 4 -107 -9 -347 -98 -265 -97 -320 -125 -367 -188 -31 -40 -102 -93
-130 -95 -17 -1 26 121 63 176 52 77 134 120 434 229 178 64 257 84 345 84 63
1 85 -4 135 -28z m1212 22 c-20 -2 -52 -2 -70 0 -17 2 0 4 38 4 39 0 53 -2 32
-4z m955 -18 c110 -28 438 -152 500 -189 90 -52 156 -143 173 -237 l7 -37 -80
41 c-45 23 -79 43 -77 45 2 2 14 -2 26 -9 23 -12 23 -12 8 12 -42 63 -160 118
-524 244 -139 48 -171 53 -295 44 -14 -1 -52 2 -85 7 l-60 9 53 34 c29 18 70
40 90 47 58 21 159 17 264 -11z m-1493 -49 c54 -28 66 -98 25 -140 -33 -32
-75 -44 -184 -50 l-85 -5 105 14 c58 7 108 14 112 14 3 1 20 13 37 27 39 33
41 74 6 110 -19 19 -31 23 -52 18 -37 -9 -41 -14 -20 -25 24 -14 21 -48 -5
-59 -13 -6 -129 -28 -258 -50 -129 -22 -271 -46 -315 -54 -70 -13 -83 -13
-102 0 -27 17 -29 33 -8 60 22 29 18 34 -16 22 -32 -11 -69 -60 -69 -91 0 -10
13 -32 29 -48 30 -29 30 -39 0 -16 -44 34 -49 83 -14 126 36 42 101 63 325
105 320 60 435 70 489 42z m834 -12 c177 -28 412 -77 454 -95 46 -20 77 -58
70 -86 -4 -15 -5 -14 -6 4 -1 21 -16 37 -36 38 -5 1 -9 6 -7 13 3 18 -26 26
-43 12 -14 -12 -14 -15 0 -30 20 -23 10 -47 -23 -55 -15 -3 -103 10 -197 29
-93 18 -228 41 -300 51 -163 21 -179 27 -173 64 4 25 1 27 -21 23 -20 -3 -23
-1 -11 7 17 11 7 27 -10 16 -19 -12 -39 -70 -33 -95 4 -14 22 -29 47 -41 23
-10 34 -19 26 -19 -28 0 -77 38 -84 64 -9 37 19 91 57 111 36 18 129 15 290
-11z m-1763 -98 c-14 -8 -113 -46 -220 -86 -107 -40 -212 -81 -233 -92 -22
-11 -41 -17 -43 -15 -7 7 105 54 275 117 86 31 172 64 191 73 43 19 64 21 30
3z m2390 4 c8 -5 11 -10 5 -10 -5 0 -17 5 -25 10 -8 5 -10 10 -5 10 6 0 17 -5
25 -10z m60 -25 c14 -8 21 -14 15 -14 -5 0 -21 6 -35 14 -14 8 -20 14 -15 14
6 0 21 -6 35 -14z m190 -72 c69 -25 136 -52 150 -60 30 -17 28 -16 -150 49
-74 27 -141 54 -150 59 -19 13 -12 11 150 -48z m-1087 20 c-7 -2 -19 -2 -25 0
-7 3 -2 5 12 5 14 0 19 -2 13 -5z m147 -13 c48 -6 50 -7 15 -8 -22 0 -65 3
-95 8 -48 6 -50 7 -15 8 22 0 65 -3 95 -8z m-1032 -7 c-10 -2 -28 -2 -40 0
-13 2 -5 4 17 4 22 1 32 -1 23 -4z m-80 -10 c-10 -2 -26 -2 -35 0 -10 3 -2 5
17 5 19 0 27 -2 18 -5z m1220 0 c-10 -2 -26 -2 -35 0 -10 3 -2 5 17 5 19 0 27
-2 18 -5z m-1285 -10 c-7 -2 -21 -2 -30 0 -10 3 -4 5 12 5 17 0 24 -2 18 -5z
m1355 0 c-10 -2 -26 -2 -35 0 -10 3 -2 5 17 5 19 0 27 -2 18 -5z m386 -42
l-28 -26 22 26 c12 14 22 32 23 40 0 11 2 11 6 0 3 -7 -7 -25 -23 -40z m-1814
29 c-14 -4 -34 -8 -45 -8 -16 0 -15 2 5 8 14 4 34 8 45 8 16 0 15 -2 -5 -8z
m1493 3 c-7 -2 -21 -2 -30 0 -10 3 -4 5 12 5 17 0 24 -2 18 -5z m-1155 -10
c-10 -2 -26 -2 -35 0 -10 3 -2 5 17 5 19 0 27 -2 18 -5z m106 -14 c36 -9 143
-9 636 0 14 0 38 0 54 0 l30 -2 -32 -28 c-61 -55 -119 -64 -397 -63 -269 0
-308 6 -382 52 -43 27 -53 40 -30 39 6 0 26 1 42 2 24 1 27 3 15 12 -12 9 -12
10 4 5 10 -4 37 -11 60 -17z m714 14 c-10 -2 -26 -2 -35 0 -10 3 -2 5 17 5 19
0 27 -2 18 -5z m379 1 c-3 -3 -12 -4 -19 -1 -8 3 -5 6 6 6 11 1 17 -2 13 -5z
m-1622 -13 c-11 -5 -36 -11 -55 -14 -35 -6 -34 -6 5 8 43 14 84 19 50 6z m295
-1 c0 -5 -2 -10 -4 -10 -3 0 -8 5 -11 10 -3 6 -1 10 4 10 6 0 11 -4 11 -10z
m1395 0 c13 -5 14 -9 5 -9 -8 0 -24 4 -35 9 -13 5 -14 9 -5 9 8 0 24 -4 35 -9z
m-325 -4 c0 -2 -8 -10 -17 -17 -16 -13 -17 -12 -4 4 13 16 21 21 21 13z m377
-12 c-3 -3 -12 -4 -19 -1 -8 3 -5 6 6 6 11 1 17 -2 13 -5z m-1844 -11 c-7 -2
-19 -2 -25 0 -7 3 -2 5 12 5 14 0 19 -2 13 -5z m442 -33 c21 -22 37 -40 34
-40 -3 0 -23 18 -44 40 -21 22 -37 40 -34 40 3 0 23 -18 44 -40z m1524 24 c8
-7 -64 -2 -89 6 -16 6 -6 7 30 3 30 -3 57 -7 59 -9z m621 6 c8 -5 11 -10 5
-10 -5 0 -17 5 -25 10 -8 5 -10 10 -5 10 6 0 17 -5 25 -10z m-2637 -7 c-7 -2
-21 -2 -30 0 -10 3 -4 5 12 5 17 0 24 -2 18 -5z m1477 -17 c0 -2 -8 -10 -17
-17 -16 -13 -17 -12 -4 4 13 16 21 21 21 13z m-2055 -51 c19 -18 25 -35 25
-69 0 -57 -9 -65 -130 -126 -99 -50 -366 -198 -475 -264 -72 -43 -100 -45
-137 -9 -35 34 -38 88 -6 128 27 34 137 106 340 222 256 146 333 169 383 118z
m625 21 c0 -2 -8 -10 -17 -17 -16 -13 -17 -12 -4 4 13 16 21 21 21 13z m60
-16 c-19 -36 -80 -89 -129 -115 -74 -37 -487 -174 -545 -181 -28 -3 -69 -1
-91 4 l-40 9 55 24 c41 17 50 25 35 28 -11 2 12 10 50 16 76 14 479 154 534
186 18 11 36 18 38 15 3 -2 23 4 46 15 53 24 60 24 47 -1z m1816 2 c5 1 29 -9
54 -24 25 -15 110 -50 190 -78 80 -29 153 -56 162 -61 9 -5 68 -22 130 -39 66
-17 101 -30 83 -30 -23 -1 -15 -6 33 -19 104 -30 98 -45 -16 -46 -70 0 -95 6
-287 74 -115 40 -238 86 -271 102 -95 45 -195 156 -115 128 15 -5 32 -9 37 -7z
m784 -15 c95 -42 407 -218 481 -271 93 -67 113 -126 63 -185 -40 -47 -66 -42
-216 47 -270 160 -325 191 -411 231 -121 58 -141 95 -86 165 42 54 70 56 169
13z m-2560 -71 c0 -2 -8 -10 -17 -17 -16 -13 -17 -12 -4 4 13 16 21 21 21 13z
m1710 -31 c19 -19 32 -35 29 -35 -3 0 -20 16 -39 35 -19 19 -32 35 -29 35 3 0
20 -16 39 -35z m-3011 -23 l54 -17 -39 -26 c-50 -32 -72 -41 -76 -28 -7 22
-103 -13 -183 -66 -110 -73 -451 -355 -480 -396 -13 -19 -27 -47 -31 -64 -6
-29 -4 -28 52 26 92 88 441 370 499 403 l30 18 -29 -24 c-392 -310 -485 -390
-572 -489 -82 -93 -89 -99 -97 -77 -5 13 -7 57 -5 98 8 137 73 216 365 441
191 147 234 175 306 198 76 24 135 25 206 3z m4446 4 c76 -20 118 -45 265
-157 318 -241 385 -308 415 -413 16 -54 16 -168 0 -184 -2 -2 -57 49 -122 115
-109 111 -337 307 -475 411 -32 23 -58 45 -58 48 0 18 358 -274 478 -390 91
-88 92 -89 78 -49 -22 62 -56 124 -65 119 -4 -3 -34 18 -66 47 -32 29 -129
110 -214 180 -171 140 -260 193 -313 184 -26 -4 -47 3 -96 31 l-64 37 54 17
c65 21 118 22 183 4z m-3195 0 c0 -2 -8 -10 -17 -17 -16 -13 -17 -12 -4 4 13
16 21 21 21 13z m1850 -52 c0 -2 -9 0 -20 6 -11 6 -20 13 -20 16 0 2 9 0 20
-6 11 -6 20 -13 20 -16z m720 -80 c0 -2 -9 0 -20 6 -11 6 -20 13 -20 16 0 2 9
0 20 -6 11 -6 20 -13 20 -16z m105 -62 c-3 -3 -11 0 -18 7 -9 10 -8 11 6 5 10
-3 15 -9 12 -12z m-98 -38 c-3 -3 -12 -4 -19 -1 -8 3 -5 6 6 6 11 1 17 -2 13
-5z m-99 -11 c-10 -2 -28 -2 -40 0 -13 2 -5 4 17 4 22 1 32 -1 23 -4z m-3541
-55 c-3 -7 -5 -2 -5 12 0 14 2 19 5 13 2 -7 2 -19 0 -25z m2003 17 c38 -19 60
-63 60 -116 0 -33 -6 -47 -34 -75 -19 -19 -43 -34 -55 -34 -12 0 -21 -3 -21
-6 0 -15 144 -304 195 -390 75 -128 171 -226 236 -242 89 -22 177 23 433 222
72 56 134 104 139 107 4 3 -3 23 -17 44 -59 86 -6 195 94 195 66 0 116 -64
107 -138 -6 -58 -41 -94 -99 -101 l-43 -6 -42 -145 c-24 -80 -70 -252 -104
-382 -34 -130 -65 -242 -69 -248 -5 -8 -15 -8 -36 0 -38 15 -197 46 -304 59
-273 35 -836 32 -1075 -4 -88 -13 -209 -42 -256 -60 -13 -5 -18 6 -28 57 -11
56 -51 204 -163 611 l-33 117 -33 0 c-82 0 -128 67 -103 149 16 55 52 81 110
81 56 0 86 -19 101 -64 13 -40 0 -105 -25 -126 -8 -7 -15 -18 -15 -24 0 -12
204 -184 295 -248 66 -47 162 -95 208 -103 79 -15 177 60 284 220 74 111 226
409 212 418 -2 2 -16 8 -32 15 -35 15 -67 68 -67 110 0 92 97 150 180 107z
m1905 -3 c-3 -3 -11 0 -18 7 -9 10 -8 11 6 5 10 -3 15 -9 12 -12z m155 -115
c95 -100 417 -362 546 -444 18 -12 18 -12 -1 -6 -12 4 -5 -7 20 -29 46 -41 60
-41 24 0 -15 17 -10 15 14 -7 20 -19 37 -38 37 -41 0 -13 -112 10 -151 31 -22
11 -106 73 -187 137 -81 65 -177 141 -213 169 -106 83 -179 172 -179 217 0 16
21 13 51 -8 24 -17 -32 36 -66 62 l-30 23 35 -18 c19 -10 64 -49 100 -86z
m-4193 42 c-42 -35 -43 -53 -1 -20 36 29 44 26 34 -9 -21 -75 -85 -142 -248
-264 -57 -43 -142 -109 -190 -147 -109 -88 -191 -130 -250 -127 l-43 1 28 29
c15 16 51 43 80 59 89 51 444 336 529 425 44 46 84 84 89 84 5 0 -7 -14 -28
-31z m4114 -166 c13 -16 12 -17 -3 -4 -10 7 -18 15 -18 17 0 8 8 3 21 -13z
m-4081 -16 c0 -2 -17 -19 -37 -38 l-38 -34 34 38 c33 34 41 42 41 34z m-669
-67 c25 -14 49 -62 49 -97 0 -42 -23 -73 -195 -258 -87 -93 -173 -193 -191
-221 -68 -106 -133 -131 -196 -75 -27 24 -33 36 -32 70 2 64 13 78 307 398
167 182 207 210 258 183z m5417 -16 c-16 -8 -28 -16 -28 -18 0 -2 12 -3 28 -2
15 0 37 -3 49 -7 19 -7 22 -5 16 10 -4 10 -11 21 -17 25 -7 5 -3 8 9 8 31 1
402 -391 479 -504 28 -42 35 -109 13 -137 -31 -41 -109 -52 -145 -21 -11 9
-91 100 -177 202 -87 102 -181 210 -210 240 -62 64 -75 87 -75 130 0 33 46 90
72 90 7 -1 1 -8 -14 -16z m-4838 2 c0 -2 -8 -10 -17 -17 -16 -13 -17 -12 -4 4
13 16 21 21 21 13z m4281 -13 c13 -16 12 -17 -3 -4 -10 7 -18 15 -18 17 0 8 8
3 21 -13z m-4331 -27 c0 -2 -8 -10 -17 -17 -16 -13 -17 -12 -4 4 13 16 21 21
21 13z m4415 -36 c10 -11 16 -20 13 -20 -3 0 -13 9 -23 20 -10 11 -16 20 -13
20 3 0 13 -9 23 -20z m-4455 6 c0 -2 -8 -10 -17 -17 -16 -13 -17 -12 -4 4 13
16 21 21 21 13z m4501 -43 c13 -16 12 -17 -3 -4 -10 7 -18 15 -18 17 0 8 8 3
21 -13z m44 -33 c10 -11 16 -20 13 -20 -3 0 -13 9 -23 20 -10 11 -16 20 -13
20 3 0 13 -9 23 -20z m60 -50 c10 -11 16 -20 13 -20 -3 0 -13 9 -23 20 -10 11
-16 20 -13 20 3 0 13 -9 23 -20z m-4775 -4 c0 -2 -8 -10 -17 -17 -16 -13 -17
-12 -4 4 13 16 21 21 21 13z m4840 -51 c13 -14 21 -25 18 -25 -2 0 -15 11 -28
25 -13 14 -21 25 -18 25 2 0 15 -11 28 -25z m-4900 2 c0 -2 -12 -14 -27 -28
l-28 -24 24 28 c23 25 31 32 31 24z m4955 -47 c10 -11 16 -20 13 -20 -3 0 -13
9 -23 20 -10 11 -16 20 -13 20 3 0 13 -9 23 -20z m-5676 -37 c-13 -16 -38 -44
-55 -63 -45 -50 -89 -115 -247 -365 -76 -121 -145 -227 -153 -235 -23 -22 215
359 308 494 27 38 46 71 44 74 -2 2 -15 -2 -28 -9 -12 -7 -29 -14 -37 -15 -7
-2 -19 -8 -25 -15 -8 -8 -4 -8 14 1 l25 13 -26 -29 c-33 -36 -345 -524 -370
-579 -10 -22 -18 -56 -18 -75 l0 -35 25 48 c13 26 26 47 29 47 4 0 -16 -45
-86 -197 l-31 -68 -20 55 c-47 135 -31 238 60 382 304 485 316 502 389 545 65
38 111 52 172 53 l54 0 -24 -27z m6505 -11 c36 -17 84 -50 108 -74 42 -42 346
-518 375 -587 37 -88 36 -198 -2 -288 l-17 -38 -35 70 c-26 51 -37 86 -39 130
-5 71 -16 101 -63 175 -19 30 -88 145 -154 255 -65 110 -129 211 -141 223 -24
27 -87 62 -111 62 -17 0 -104 87 -105 104 0 19 121 -3 184 -32z m-5957 -28
c-3 -3 -12 -4 -19 -1 -8 3 -5 6 6 6 11 1 17 -2 13 -5z m-50 -10 c-3 -3 -12 -4
-19 -1 -8 3 -5 6 6 6 11 1 17 -2 13 -5z m5490 0 c-3 -3 -12 -4 -19 -1 -8 3 -5
6 6 6 11 1 17 -2 13 -5z m552 -199 c70 -104 121 -187 104 -170 -5 6 -44 62
-85 125 -42 63 -90 135 -108 160 -22 31 -24 36 -6 15 15 -16 57 -75 95 -130z
m-6299 86 c0 -5 -7 -12 -16 -15 -14 -5 -15 -4 -4 9 14 17 20 19 20 6z m5867
-33 c-3 -8 -6 -5 -6 6 -1 11 2 17 5 13 3 -3 4 -12 1 -19z m34 -25 c13 -16 12
-17 -3 -4 -10 7 -18 15 -18 17 0 8 8 3 21 -13z m-44 -35 c-3 -7 -5 -2 -5 12 0
14 2 19 5 13 2 -7 2 -19 0 -25z m-5912 -83 c-9 -74 -28 -109 -190 -353 -152
-229 -221 -308 -277 -319 -20 -4 -35 -17 -48 -42 -25 -47 -25 -35 0 24 11 25
24 44 29 41 5 -3 7 2 4 13 -3 12 13 37 50 77 30 32 91 118 137 189 45 72 102
160 125 196 24 37 65 109 90 160 62 123 67 129 78 93 4 -16 5 -51 2 -79z
m5996 68 c13 -16 12 -17 -3 -4 -10 7 -18 15 -18 17 0 8 8 3 21 -13z m9 -28 c0
19 39 -30 45 -56 4 -16 40 -82 82 -146 41 -65 109 -172 151 -238 42 -66 95
-140 118 -165 35 -38 74 -98 74 -114 0 -7 -58 2 -79 13 -36 20 -111 114 -194
244 -46 73 -112 176 -147 230 -62 97 -90 174 -82 225 3 19 6 21 18 11 8 -6 14
-8 14 -4z m-93 -87 c-3 -7 -5 -2 -5 12 0 14 2 19 5 13 2 -7 2 -19 0 -25z m604
-120 c23 -40 49 -83 57 -95 8 -13 12 -23 9 -23 -3 0 -29 39 -58 88 -63 105
-61 102 -56 102 3 0 24 -33 48 -72z m-5660 -7 c242 -42 486 -131 604 -221 28
-21 75 -50 105 -66 61 -31 66 -32 380 -19 190 8 315 -4 518 -50 252 -57 504
-135 540 -168 18 -17 22 -30 21 -76 -2 -85 -10 -103 -58 -130 -49 -27 -65 -58
-76 -141 -44 -358 -225 -492 -569 -421 -143 29 -248 82 -334 168 -117 117
-176 236 -227 458 -25 108 -31 124 -64 156 -49 50 -103 64 -151 41 -31 -15
-41 -31 -93 -151 -94 -218 -149 -284 -265 -317 -63 -19 -145 -13 -250 17 -97
28 -165 64 -228 121 -94 87 -134 195 -163 439 -18 148 -21 161 -55 216 -20 32
-36 69 -36 81 0 32 26 79 47 86 33 10 240 -4 354 -23z m2404 -111 c254 -17
491 -57 565 -95 27 -14 48 -50 36 -62 -3 -4 -6 1 -6 10 0 27 -52 46 -176 62
-139 19 -521 33 -644 24 l-85 -6 80 -3 c79 -2 79 -3 29 -10 -62 -9 -75 -16
-68 -35 4 -10 -6 -15 -43 -17 -45 -3 6 -7 372 -26 87 -4 -58 -7 -385 -6 -482
1 -655 8 -795 32 l-40 7 21 21 c82 82 667 135 1139 104z m3368 -59 c27 -46 14
-38 -18 12 -16 23 -22 37 -14 30 8 -6 22 -25 32 -42z m-3436 -17 c-3 -3 -12
-4 -19 -1 -8 3 -5 6 6 6 11 1 17 -2 13 -5z m80 0 c-3 -3 -12 -4 -19 -1 -8 3
-5 6 6 6 11 1 17 -2 13 -5z m-3806 -64 c29 -16 51 -65 43 -97 -4 -16 -42 -107
-84 -203 -43 -96 -94 -221 -113 -277 -44 -125 -70 -177 -99 -197 -53 -37 -122
-3 -138 68 -12 56 11 121 205 578 43 101 78 138 131 138 20 0 44 -5 55 -10z
m7138 -4 c30 -16 60 -71 138 -256 137 -323 165 -417 138 -469 -19 -39 -52 -61
-88 -61 -46 0 -80 46 -122 167 -20 59 -75 198 -122 308 -90 213 -96 243 -59
300 19 29 70 34 115 11z m-3051 -33 c-15 -2 -42 -2 -60 0 -18 2 -6 4 27 4 33
0 48 -2 33 -4z m90 -10 c-10 -2 -26 -2 -35 0 -10 3 -2 5 17 5 19 0 27 -2 18
-5z m202 -60 c-11 -17 -11 -17 -6 0 3 10 7 31 7 45 l2 27 4 -27 c2 -15 -1 -35
-7 -45z m-147 50 c-7 -2 -19 -2 -25 0 -7 3 -2 5 12 5 14 0 19 -2 13 -5z m50
-10 c-7 -2 -19 -2 -25 0 -7 3 -2 5 12 5 14 0 19 -2 13 -5z m72 -23 c3 -6 -1
-7 -9 -4 -18 7 -21 14 -7 14 6 0 13 -4 16 -10z m-185 -55 c-123 -25 -407 -101
-502 -134 -59 -20 -72 -15 -40 17 19 19 262 80 472 118 165 29 217 29 70 -1z
m-3880 -19 c0 -2 -8 -10 -17 -17 -16 -13 -17 -12 -4 4 13 16 21 21 21 13z
m-30 -39 c0 -2 -15 -16 -32 -33 l-33 -29 29 33 c28 30 36 37 36 29z m6565 -47
c10 -11 16 -20 13 -20 -3 0 -13 9 -23 20 -10 11 -16 20 -13 20 3 0 13 -9 23
-20z m-6680 -50 c-3 -5 -12 -10 -18 -10 -7 0 -6 4 3 10 19 12 23 12 15 0z
m-125 -46 c0 -2 -9 -4 -21 -4 -11 0 -18 4 -14 10 5 8 35 3 35 -6z m5070 -69
c52 -8 124 -24 160 -36 78 -25 236 -99 340 -158 106 -61 180 -90 284 -112 50
-11 97 -26 104 -33 19 -18 5 -41 -26 -44 -15 -1 -41 -7 -59 -13 -34 -11 -40
-28 -62 -164 -24 -146 -48 -487 -35 -484 5 1 18 -2 28 -6 19 -8 19 -9 0 -16
-16 -6 -15 -8 7 -8 l27 -1 7 116 c4 63 9 113 12 111 2 -3 1 -57 -3 -121 l-7
-116 -61 0 c-78 0 -108 15 -119 60 -54 215 -136 385 -240 496 -180 193 -444
262 -643 168 -186 -88 -256 -325 -155 -529 75 -150 174 -221 622 -443 178 -88
367 -188 419 -222 118 -77 239 -199 303 -306 46 -77 117 -256 117 -292 -1 -9
-11 15 -24 53 -43 129 -57 157 -72 144 -17 -14 -16 -15 -43 39 -40 78 -30 43
13 -50 52 -110 63 -155 76 -291 34 -355 -107 -681 -372 -864 -160 -110 -306
-159 -547 -183 -290 -29 -633 63 -981 263 -89 51 -96 54 -117 40 -14 -10 -33
-13 -50 -9 l-28 7 25 -20 c14 -11 123 -70 243 -131 120 -60 214 -110 208 -110
-16 0 -464 228 -480 245 -13 13 -12 23 8 83 42 128 50 211 51 494 0 254 1 268
19 278 31 16 69 12 89 -11 11 -11 43 -73 71 -137 68 -155 132 -253 238 -363
138 -143 296 -254 426 -298 313 -108 589 27 648 317 27 132 -23 274 -141 393
-85 86 -152 130 -349 229 -483 242 -699 391 -844 585 -76 101 -120 193 -153
320 -23 85 -27 121 -27 240 -1 154 12 223 63 351 92 230 277 402 530 494 158
58 320 73 500 45z m-5495 -142 c-24 -60 -54 -157 -68 -218 -62 -282 -111 -494
-115 -490 -6 6 114 548 137 618 14 41 -6 23 -33 -32 -25 -49 -148 -512 -166
-626 -8 -48 -7 -77 1 -108 10 -36 13 -39 20 -22 6 13 8 -2 4 -44 -3 -35 -5
-78 -5 -94 l0 -31 -35 34 c-44 43 -82 121 -90 186 -8 61 14 210 60 407 61 263
115 391 189 454 28 23 121 73 138 73 3 0 -13 -48 -37 -107z m7887 76 c124 -63
165 -143 247 -489 59 -249 75 -359 63 -429 -13 -71 -49 -146 -90 -184 l-30
-29 -7 70 c-6 59 -4 74 12 98 13 21 18 47 18 99 0 88 -25 229 -35 200 -5 -13
-22 45 -54 180 -44 186 -62 251 -82 299 -6 15 -4 17 7 11 12 -7 12 -6 0 11 -8
10 -26 32 -40 47 -23 25 -26 26 -33 10 -5 -15 -7 -15 -7 -2 -1 9 -12 42 -26
73 -14 31 -25 59 -25 62 0 8 38 -5 82 -27z m-7552 -81 c10 -21 10 -21 -3 -6
-8 10 -17 15 -20 11 -4 -3 -7 -1 -7 5 0 20 19 13 30 -10z m-24 -116 c23 -70
17 -147 -22 -288 -19 -71 -46 -178 -59 -239 -13 -60 -30 -129 -39 -153 -18
-50 -63 -118 -100 -149 l-26 -23 0 29 c0 16 7 47 15 70 14 41 126 473 151 586
8 33 14 74 14 91 0 41 43 165 48 139 2 -11 10 -39 18 -63z m7573 28 c0 -10 -3
-8 -9 5 -12 27 -12 43 0 25 5 -8 9 -22 9 -30z m-269 -168 c15 -81 35 -174 44
-207 36 -136 89 -362 91 -385 1 -14 5 -45 10 -70 l7 -44 -23 16 c-41 26 -78
99 -104 203 -13 55 -43 174 -66 265 -49 194 -55 280 -24 352 15 35 22 43 28
32 4 -8 21 -81 37 -162z m-5882 129 c110 -56 296 -84 404 -62 32 7 75 25 98
42 23 17 46 27 50 22 4 -4 86 -210 183 -458 97 -247 221 -565 277 -705 55
-140 107 -273 114 -295 l14 -39 21 49 c12 28 115 266 229 530 l207 480 77 -4
c227 -10 385 109 457 343 12 37 21 79 21 92 l0 24 166 0 c175 0 204 -6 204
-43 0 -18 -6 -22 -38 -24 -48 -1 -145 -38 -181 -68 -15 -13 -41 -52 -57 -87
l-29 -63 -3 -1107 c-3 -1215 -4 -1185 57 -1312 16 -34 43 -77 61 -96 l32 -35
-24 35 c-33 47 -52 84 -40 76 6 -3 13 0 16 6 4 9 5 8 5 -2 -1 -8 -1 -22 0 -30
1 -13 3 -13 10 -1 6 9 3 30 -6 55 -45 127 -45 131 -43 1221 1 867 4 1043 16
1109 17 89 39 139 86 191 32 38 116 100 124 93 2 -3 -20 -21 -50 -42 -83 -57
-123 -123 -147 -240 -19 -95 -20 -132 -17 -1154 l3 -1057 28 -79 c35 -100 92
-181 158 -226 28 -19 55 -45 60 -58 13 -33 11 -86 -3 -100 -9 -9 -144 -12
-548 -12 -601 0 -580 -2 -580 68 0 48 19 74 72 102 93 47 152 125 189 250 23
75 23 78 27 838 1 419 -1 762 -5 762 -5 0 -15 -16 -22 -36 -7 -20 -95 -221
-195 -448 -100 -226 -188 -426 -196 -444 -7 -18 -15 -31 -17 -28 -3 3 45 120
106 261 62 141 109 261 105 267 -5 7 -2 8 6 3 10 -6 12 -4 7 9 -4 10 -3 15 3
11 6 -3 10 -4 10 -1 0 3 9 28 20 56 11 28 16 49 10 45 -5 -3 -10 -13 -10 -21
0 -8 -4 -13 -9 -10 -5 3 -8 -2 -7 -11 0 -10 -7 -19 -19 -21 -15 -2 -17 -1 -6
6 7 6 11 14 7 20 -3 6 2 15 11 21 12 7 13 10 4 11 -11 0 -11 3 -1 15 10 12 10
18 1 29 -10 12 -8 13 8 9 16 -4 19 -1 16 16 -2 11 1 23 7 27 7 4 6 9 -3 15
-11 6 -7 24 19 86 41 98 47 113 31 88 -7 -11 -46 -96 -87 -190 -186 -431 -316
-735 -338 -793 -33 -86 -160 -385 -183 -429 l-18 -37 -16 30 c-9 16 -16 24
-17 18 0 -5 7 -19 15 -30 19 -25 19 -90 0 -144 -18 -51 -18 -53 -4 -44 6 3 14
1 18 -5 8 -13 63 101 151 312 29 70 55 125 57 123 5 -5 -183 -444 -208 -486
-13 -21 -24 -29 -30 -23 -6 6 -30 57 -53 114 -504 1211 -676 1627 -676 1639 0
5 -5 10 -10 10 -8 0 -10 -240 -7 -767 3 -844 0 -805 66 -938 42 -83 80 -126
161 -179 72 -48 85 -68 78 -122 -6 -52 -16 -54 -463 -54 -457 0 -455 0 -455
63 0 50 20 78 82 114 71 41 112 99 146 202 34 106 39 251 41 1322 1 928 -1
983 -43 1081 -22 51 -69 103 -137 148 -36 25 -59 48 -63 66 -13 50 0 54 196
54 155 0 184 -2 216 -19z m6171 -31 c0 -9 -4 -8 -9 5 -5 11 -9 27 -9 35 0 9 4
8 9 -5 5 -11 9 -27 9 -35z m-432 -2 c-3 -8 -6 -5 -6 6 -1 11 2 17 5 13 3 -3 4
-12 1 -19z m-7080 -30 c-3 -8 -6 -5 -6 6 -1 11 2 17 5 13 3 -3 4 -12 1 -19z
m7531 -43 c0 -16 -2 -15 -8 5 -11 34 -11 60 0 35 5 -11 8 -29 8 -40z m-461
-42 c-2 -16 -4 -3 -4 27 0 30 2 43 4 28 2 -16 2 -40 0 -55z m470 -5 c-3 -8 -6
-5 -6 6 -1 11 2 17 5 13 3 -3 4 -12 1 -19z m-1586 -74 c-11 -38 -20 -63 -20
-55 -1 20 31 133 36 128 2 -3 -5 -35 -16 -73z m1596 34 c-3 -8 -6 -5 -6 6 -1
11 2 17 5 13 3 -3 4 -12 1 -19z m21 -83 c0 -16 -2 -15 -8 5 -4 14 -8 34 -8 45
0 16 2 15 8 -5 4 -14 8 -34 8 -45z m-1641 -62 c-3 -10 -5 -4 -5 12 0 17 2 24
5 18 2 -7 2 -21 0 -30z m1650 15 c-3 -8 -6 -5 -6 6 -1 11 2 17 5 13 3 -3 4
-12 1 -19z m21 -88 c0 -22 -1 -22 -8 5 -4 17 -8 39 -8 50 0 16 2 15 8 -5 4
-14 8 -36 8 -50z m-1681 13 c-3 -10 -5 -4 -5 12 0 17 2 24 5 18 2 -7 2 -21 0
-30z m-10 -55 c-3 -7 -5 -2 -5 12 0 14 2 19 5 13 2 -7 2 -19 0 -25z m1700 -10
c-3 -8 -6 -5 -6 6 -1 11 2 17 5 13 3 -3 4 -12 1 -19z m-1710 -70 c-2 -13 -4
-5 -4 17 -1 22 1 32 4 23 2 -10 2 -28 0 -40z m1731 -13 c0 -16 -2 -15 -8 5 -4
14 -8 34 -8 45 0 16 2 15 8 -5 4 -14 8 -34 8 -45z m9 -47 c-3 -8 -6 -5 -6 6
-1 11 2 17 5 13 3 -3 4 -12 1 -19z m-8220 -20 c-3 -8 -6 -5 -6 6 -1 11 2 17 5
13 3 -3 4 -12 1 -19z m174 -31 l34 -23 0 -89 c0 -50 -8 -180 -18 -290 -9 -110
-17 -234 -17 -276 0 -62 -4 -82 -23 -110 -39 -59 -116 -61 -153 -4 -13 19 -17
47 -16 108 1 144 22 500 33 562 24 133 80 176 160 122z m7970 10 c52 -40 63
-93 89 -456 22 -299 19 -334 -27 -370 -36 -29 -76 -27 -115 8 -31 27 -32 31
-39 137 -9 122 -11 239 -5 233 2 -2 7 -69 11 -149 8 -172 16 -205 57 -226 79
-41 139 38 119 157 -5 30 -9 44 -10 31 -3 -56 -64 -114 -91 -86 -10 11 -18 71
-25 193 -4 53 -15 165 -26 250 -12 85 -19 165 -16 178 5 28 4 28 -26 1 -23
-23 -23 -23 -11 -118 7 -52 12 -120 12 -150 -1 -41 -2 -45 -5 -15 -1 22 -10
96 -19 165 -9 69 -14 138 -12 155 6 54 97 95 139 62z m-8154 -29 c-3 -7 -5 -2
-5 12 0 14 2 19 5 13 2 -7 2 -19 0 -25z m8250 -20 c-3 -8 -6 -5 -6 6 -1 11 2
17 5 13 3 -3 4 -12 1 -19z m-8260 -20 c-3 -8 -6 -5 -6 6 -1 11 2 17 5 13 3 -3
4 -12 1 -19z m8270 -35 c-3 -10 -5 -4 -5 12 0 17 2 24 5 18 2 -7 2 -21 0 -30z
m-7827 -11 c0 -5 -7 -17 -15 -28 -14 -18 -14 -17 -4 9 12 27 19 34 19 19z
m7547 -104 c-3 -7 -5 -2 -5 12 0 14 2 19 5 13 2 -7 2 -19 0 -25z m-7637 -24
c-25 -25 -58 -52 -75 -60 -16 -8 -21 -9 -10 -2 10 7 42 34 70 60 64 61 73 62
15 2z m7600 -41 c0 -8 -9 0 -50 45 l-45 47 48 -45 c26 -24 47 -45 47 -47z
m-7683 15 c-3 -8 -6 -5 -6 6 -1 11 2 17 5 13 3 -3 4 -12 1 -19z m7730 -15 c-3
-10 -5 -4 -5 12 0 17 2 24 5 18 2 -7 2 -21 0 -30z m-7702 -285 c50 -53 50 -53
4 -10 -25 23 -48 39 -52 36 -4 -4 -7 0 -7 9 0 10 1 17 3 17 1 0 25 -24 52 -52z
m-341 -85 c-7 -92 -10 -108 -14 -73 l-6 45 -18 -58 c-20 -65 -17 -161 10 -321
13 -82 13 -80 0 89 -3 33 8 -28 24 -135 17 -107 29 -208 27 -225 -1 -16 -8 18
-16 78 -8 59 -16 105 -19 102 -3 -2 3 -64 13 -137 14 -98 21 -126 27 -108 5
16 5 11 2 -17 -7 -49 18 -112 62 -158 29 -30 71 -155 52 -155 -17 0 -80 30
-105 50 -69 54 -102 138 -138 353 -62 376 -68 541 -23 639 24 51 115 164 125
154 3 -3 1 -58 -3 -123z m8065 90 c-2 -31 -3 -33 -6 -10 -3 18 -9 25 -16 20
-7 -4 -6 0 2 10 19 24 21 22 20 -20z m412 -130 c33 -81 31 -253 -5 -503 -46
-316 -63 -374 -132 -450 -30 -33 -117 -90 -137 -90 -3 0 4 30 14 68 13 47 27
73 44 86 58 42 68 82 115 448 35 279 37 338 10 393 -11 22 -19 33 -16 25 2 -9
0 -33 -4 -55 -6 -32 -8 -22 -9 50 -1 50 -4 115 -7 145 l-5 55 54 -57 c35 -36
64 -78 78 -115z m-4980 90 c-12 -20 -14 -14 -5 12 4 9 9 14 11 11 3 -2 0 -13
-6 -23z m-3178 -51 c42 -44 64 -128 102 -402 43 -311 44 -370 10 -434 -14 -26
-25 -57 -26 -69 -3 -56 -28 65 -28 138 -1 44 -6 109 -12 145 -31 190 -82 542
-86 593 -3 31 -1 57 4 57 5 0 21 -13 36 -28z m92 -3 c9 -17 15 -33 13 -35 -3
-2 -12 12 -21 31 -21 43 -13 47 8 4z m7635 -238 c-12 -86 -30 -214 -41 -285
-10 -71 -19 -159 -19 -196 0 -80 -19 -182 -32 -174 -25 16 -58 111 -58 168 0
74 66 565 85 631 8 28 29 68 47 90 l33 39 3 -58 c2 -33 -7 -129 -18 -215z
m-4575 219 c-4 -12 -9 -19 -12 -17 -3 3 -2 15 2 27 4 12 9 19 12 17 3 -3 2
-15 -2 -27z m4921 -214 c-4 -61 -11 -129 -16 -151 -6 -27 -6 -7 -2 60 4 55 7
125 7 157 0 31 4 54 9 51 5 -4 6 -54 2 -117z m-8340 -299 c14 -98 24 -183 22
-189 -7 -20 -79 511 -77 561 1 14 8 -23 15 -84 8 -60 25 -190 40 -288z m401
361 c-3 -8 -6 -5 -6 6 -1 11 2 17 5 13 3 -3 4 -12 1 -19z m7900 -35 c-3 -10
-5 -2 -5 17 0 19 2 27 5 18 2 -10 2 -26 0 -35z m-460 -45 c-3 -8 -6 -5 -6 6
-1 11 2 17 5 13 3 -3 4 -12 1 -19z m443 -93 c-7 -58 -15 -103 -18 -101 -2 3 2
52 8 111 7 58 15 103 18 101 2 -3 -2 -52 -8 -111z m-453 3 c-3 -7 -5 -2 -5 12
0 14 2 19 5 13 2 -7 2 -19 0 -25z m-10 -80 c-3 -8 -6 -5 -6 6 -1 11 2 17 5 13
3 -3 4 -12 1 -19z m490 -55 c-3 -10 -5 -2 -5 17 0 19 2 27 5 18 2 -10 2 -26 0
-35z m-500 -15 c-3 -7 -5 -2 -5 12 0 14 2 19 5 13 2 -7 2 -19 0 -25z m450 -30
c-2 -13 -4 -3 -4 22 0 25 2 35 4 23 2 -13 2 -33 0 -45z m40 -20 c-3 -7 -5 -2
-5 12 0 14 2 19 5 13 2 -7 2 -19 0 -25z m-500 -10 c-3 -8 -6 -5 -6 6 -1 11 2
17 5 13 3 -3 4 -12 1 -19z m450 -45 c-3 -10 -5 -2 -5 17 0 19 2 27 5 18 2 -10
2 -26 0 -35z m-460 -25 c-3 -7 -5 -2 -5 12 0 14 2 19 5 13 2 -7 2 -19 0 -25z
m500 0 c-3 -8 -6 -5 -6 6 -1 11 2 17 5 13 3 -3 4 -12 1 -19z m-1570 -20 c-3
-7 -5 -2 -5 12 0 14 2 19 5 13 2 -7 2 -19 0 -25z m1520 -35 c-3 -10 -5 -2 -5
17 0 19 2 27 5 18 2 -10 2 -26 0 -35z m-7770 -20 c-3 -10 -5 -4 -5 12 0 17 2
24 5 18 2 -7 2 -21 0 -30z m6260 -30 c-2 -16 -4 -5 -4 22 0 28 2 40 4 28 2
-13 2 -35 0 -50z m1050 -30 c-2 -21 -4 -6 -4 32 0 39 2 55 4 38 2 -18 2 -50 0
-70z m-4634 -50 c-26 -62 -49 -110 -51 -108 -2 2 17 53 43 115 26 61 49 109
51 108 2 -2 -18 -54 -43 -115z m5084 70 c-3 -10 -5 -4 -5 12 0 17 2 24 5 18 2
-7 2 -21 0 -30z m-7998 -3 c24 -12 33 -37 76 -205 20 -77 61 -223 92 -325 58
-197 60 -225 21 -267 -31 -33 -87 -31 -121 3 -50 49 -200 565 -201 687 -1 63
1 71 27 93 29 25 75 31 106 14z m238 -37 c-3 -10 -5 -2 -5 17 0 19 2 27 5 18
2 -10 2 -26 0 -35z m7636 36 c34 -15 52 -54 50 -104 -2 -55 -69 -311 -128
-492 -69 -209 -114 -260 -194 -217 -59 31 -61 58 -18 182 20 59 62 199 92 312
31 113 63 229 71 258 10 37 21 56 37 62 31 12 62 12 90 -1z m-8076 -36 c-3
-10 -5 -4 -5 12 0 17 2 24 5 18 2 -7 2 -21 0 -30z m8190 -20 c-3 -10 -5 -4 -5
12 0 17 2 24 5 18 2 -7 2 -21 0 -30z m-8180 -35 c-3 -7 -5 -2 -5 12 0 14 2 19
5 13 2 -7 2 -19 0 -25z m6700 0 c-3 -7 -5 -2 -5 12 0 14 2 19 5 13 2 -7 2 -19
0 -25z m1050 0 c-3 -8 -6 -5 -6 6 -1 11 2 17 5 13 3 -3 4 -12 1 -19z m420 -20
c-3 -7 -5 -2 -5 12 0 14 2 19 5 13 2 -7 2 -19 0 -25z m-8160 -40 c-3 -8 -6 -5
-6 6 -1 11 2 17 5 13 3 -3 4 -12 1 -19z m7813 -83 c6 -3 15 4 20 17 11 23 11
23 5 -2 -2 -14 -5 -31 -5 -38 0 -8 -11 -1 -24 15 -25 30 -56 87 -56 100 1 4
12 -13 25 -39 14 -26 29 -49 35 -53z m-1133 23 c-2 -13 -4 -5 -4 17 -1 22 1
32 4 23 2 -10 2 -28 0 -40z m-6326 -6 c-5 -10 -17 -24 -25 -32 -13 -10 -16
-10 -16 4 0 10 4 15 9 11 6 -3 15 4 21 15 6 11 13 20 16 20 2 0 0 -8 -5 -18z
m6316 -69 c-3 -10 -5 -4 -5 12 0 17 2 24 5 18 2 -7 2 -21 0 -30z m-10 -45 c-3
-8 -6 -5 -6 6 -1 11 2 17 5 13 3 -3 4 -12 1 -19z m-10 -40 c-3 -8 -6 -5 -6 6
-1 11 2 17 5 13 3 -3 4 -12 1 -19z m-2530 -130 c-3 -8 -6 -5 -6 6 -1 11 2 17
5 13 3 -3 4 -12 1 -19z m-3617 -24 c0 -2 -9 0 -20 6 -11 6 -20 13 -20 16 0 2
9 0 20 -6 11 -6 20 -13 20 -16z m6085 -13 c-21 -43 -29 -39 -8 4 9 19 18 33
21 31 2 -2 -4 -18 -13 -35z m1065 15 c0 -2 -8 -10 -17 -17 -16 -13 -17 -12 -4
4 13 16 21 21 21 13z m-7095 -46 c21 -22 37 -40 34 -40 -3 0 -23 18 -44 40
-21 22 -37 40 -34 40 3 0 23 -18 44 -40z m-115 -5 c54 -17 123 -106 209 -270
46 -88 111 -209 145 -270 l61 -109 1 -93 c1 -51 0 -93 -2 -93 -8 0 -64 83 -64
94 0 6 5 4 10 -4 7 -11 10 -5 10 23 0 30 -28 91 -130 280 -71 133 -134 249
-139 257 -15 22 50 -119 72 -157 10 -17 19 -44 21 -60 1 -17 7 -27 15 -25 8 2
11 -3 8 -12 -4 -9 -1 -15 5 -13 6 1 12 -12 14 -29 1 -17 23 -71 49 -120 25
-49 40 -80 31 -70 -9 11 -37 60 -62 110 -26 50 -78 146 -116 213 -37 68 -68
125 -68 128 0 3 -18 34 -40 69 -40 63 -70 134 -70 165 0 10 3 12 8 5 4 -6 18
-15 32 -19z m7296 -7 c-4 -18 -31 -74 -61 -124 -58 -98 -257 -477 -293 -559
-12 -27 -21 -44 -22 -36 0 7 34 83 75 168 41 85 72 160 68 166 -4 6 -1 7 7 2
10 -6 12 -4 7 9 -5 11 -3 15 5 10 8 -5 9 -2 5 10 -5 11 -3 15 5 10 8 -5 9 -2
5 10 -4 10 -3 15 3 11 13 -8 61 90 54 112 -5 14 -4 15 4 4 8 -11 12 -10 21 7
14 26 14 35 0 26 -8 -4 -7 0 1 15 6 12 15 19 20 16 6 -3 7 2 4 12 -5 15 -4 16
5 3 11 -13 12 -13 9 0 -1 8 4 26 12 40 12 23 12 24 -4 11 -34 -28 -74 -98
-195 -336 -114 -223 -122 -243 -119 -289 3 -42 -1 -53 -28 -84 l-31 -36 1 90
1 89 130 258 c147 291 181 342 245 374 25 12 50 27 55 32 16 16 18 13 11 -21z
m-136 19 c0 -2 -12 -14 -27 -28 l-28 -24 24 28 c23 25 31 32 31 24z m481 -92
c42 -120 25 -183 -134 -495 -138 -271 -181 -346 -229 -396 -36 -38 -146 -90
-206 -97 l-44 -5 20 21 c10 12 33 42 50 67 34 49 78 103 67 83 -3 -7 -2 -13 4
-13 26 0 79 77 152 218 85 163 100 207 24 67 -26 -47 -51 -87 -56 -90 -12 -8
1 24 26 60 11 17 36 65 55 107 19 43 39 77 44 78 4 0 6 -6 3 -12 -25 -61 -6
-30 54 89 54 107 73 155 77 195 2 29 2 50 -2 47 -3 -3 -8 -26 -10 -50 -4 -48
-46 -152 -53 -132 -2 7 0 21 6 32 6 11 11 23 11 28 0 13 -114 -198 -216 -402
-53 -104 -100 -194 -105 -200 -14 -14 182 389 221 454 67 115 111 211 170 379
22 60 23 62 37 42 8 -12 23 -45 34 -75z m-7953 48 c6 -21 20 -68 31 -104 16
-55 190 -403 339 -679 19 -36 30 -60 24 -55 -12 12 -100 173 -205 375 -161
311 -170 328 -162 285 13 -72 36 -126 158 -368 85 -170 132 -253 162 -284 39
-40 75 -59 59 -30 -9 17 43 -43 63 -73 10 -14 31 -43 47 -64 l30 -39 -54 7
c-85 10 -176 61 -230 128 -45 56 -236 406 -297 544 -44 99 -57 180 -42 252 11
57 47 142 60 142 4 0 11 -17 17 -37z m4048 -13 c19 0 18 -15 -3 -31 -16 -13
-17 -12 -4 4 12 15 12 17 -1 12 -9 -4 -19 4 -26 20 -17 36 -15 44 4 17 8 -12
22 -22 30 -22z m3374 -4 c0 -2 -8 -10 -17 -17 -16 -13 -17 -12 -4 4 13 16 21
21 21 13z m-1058 -63 c-11 -16 -30 -37 -43 -48 -12 -11 -5 1 16 28 43 52 57
63 27 20z m998 -23 c-6 -11 -13 -20 -16 -20 -2 0 0 9 6 20 6 11 13 20 16 20 2
0 0 -9 -6 -20z m-1060 -54 c0 -2 -8 -10 -17 -17 -16 -13 -17 -12 -4 4 13 16
21 21 21 13z m-50 -39 c0 -2 -15 -16 -32 -33 l-33 -29 29 33 c28 30 36 37 36
29z m-78 -69 c-6 -7 -25 -22 -44 -32 -39 -23 -32 -13 14 20 38 26 45 29 30 12z
m1068 -88 c-11 -22 -23 -40 -25 -40 -3 0 4 18 15 40 11 22 23 40 25 40 3 0 -4
-18 -15 -40z m521 -29 c-18 -38 -31 -56 -34 -47 -3 8 3 26 14 41 12 14 22 31
23 38 2 17 17 39 22 34 3 -2 -9 -32 -25 -66z m-2821 7 c10 -6 7 -7 -10 -2 -14
3 -32 11 -40 16 -10 6 -7 7 10 2 14 -3 32 -11 40 -16z m-4260 -38 c6 -11 8
-20 6 -20 -3 0 -10 9 -16 20 -6 11 -8 20 -6 20 3 0 10 -9 16 -20z m6521 -13
c-10 -9 -11 -8 -5 6 3 10 9 15 12 12 3 -3 0 -11 -7 -18z m-2124 7 c-3 -3 -12
-4 -19 -1 -8 3 -5 6 6 6 11 1 17 -2 13 -5z m80 -20 c-3 -3 -12 -4 -19 -1 -8 3
-5 6 6 6 11 1 17 -2 13 -5z m640 0 c-3 -3 -12 -4 -19 -1 -8 3 -5 6 6 6 11 1
17 -2 13 -5z m-594 -11 c-7 -2 -19 -2 -25 0 -7 3 -2 5 12 5 14 0 19 -2 13 -5z
m554 1 c-3 -3 -12 -4 -19 -1 -8 3 -5 6 6 6 11 1 17 -2 13 -5z m-494 -11 c-7
-2 -21 -2 -30 0 -10 3 -4 5 12 5 17 0 24 -2 18 -5z m440 0 c-7 -2 -19 -2 -25
0 -7 3 -2 5 12 5 14 0 19 -2 13 -5z m-355 -10 c-10 -2 -28 -2 -40 0 -13 2 -5
4 17 4 22 1 32 -1 23 -4z m280 0 c-10 -2 -28 -2 -40 0 -13 2 -5 4 17 4 22 1
32 -1 23 -4z m-4873 -64 c9 -17 15 -33 13 -35 -3 -2 -12 12 -21 31 -21 43 -13
47 8 4z m6378 -14 c-3 -9 -8 -14 -10 -11 -3 3 -2 9 2 15 9 16 15 13 8 -4z
m-22 -56 c-5 -13 -10 -19 -10 -12 -1 15 10 45 15 40 3 -2 0 -15 -5 -28z
m-6324 -31 c-3 -8 -6 -5 -6 6 -1 11 2 17 5 13 3 -3 4 -12 1 -19z m6310 -110
c-2 -24 -4 -7 -4 37 0 44 2 63 4 43 2 -21 2 -57 0 -80z m-6300 0 c-2 -18 -4
-6 -4 27 0 33 2 48 4 33 2 -15 2 -42 0 -60z m-206 35 c19 -21 62 -74 94 -118
32 -44 101 -132 151 -197 147 -185 184 -243 184 -289 0 -84 -92 -120 -160 -62
-35 29 -234 292 -227 300 3 2 21 -19 42 -47 21 -28 40 -49 42 -46 6 6 33 -19
33 -30 0 -3 -8 0 -17 7 -16 13 -17 12 -4 -3 7 -10 17 -16 21 -13 4 3 14 -3 21
-13 13 -15 12 -16 -3 -3 -24 18 -23 5 3 -27 21 -26 21 -26 14 -3 -5 16 -4 21
4 17 6 -4 10 -17 9 -30 -2 -27 46 -92 83 -112 44 -22 84 -18 108 12 28 36 26
80 -5 126 -24 34 -46 55 -28 27 4 -7 0 -9 -13 -5 -17 5 -19 2 -15 -28 3 -27 0
-37 -18 -46 -39 -21 -87 25 -231 217 -74 98 -154 209 -179 246 -25 37 -48 67
-52 67 -13 0 -9 -29 8 -62 13 -24 18 -28 26 -17 7 11 8 9 4 -6 -3 -13 4 -31
20 -50 l26 -30 -17 35 c-16 33 -16 34 0 18 10 -9 19 -28 21 -43 2 -25 24 -61
24 -40 0 4 9 0 20 -10 11 -10 20 -23 20 -29 0 -6 -9 0 -20 14 -11 14 -20 21
-20 16 0 -10 48 -68 54 -64 7 4 56 -44 56 -55 0 -6 -8 -3 -18 6 -10 10 -21 15
-24 12 -13 -14 -198 250 -198 282 0 39 29 83 63 98 48 21 60 18 98 -22z m6835
0 c22 -24 25 -35 22 -74 -5 -53 -29 -89 -229 -345 -140 -179 -214 -263 -246
-275 -51 -19 -113 32 -113 94 0 29 39 88 168 254 52 67 99 120 105 116 6 -3 7
-1 3 5 -8 14 65 119 136 198 44 48 54 54 89 54 31 0 46 -6 65 -27z m-6646
-110 c-11 -17 -11 -17 -6 0 3 10 6 24 7 30 0 9 2 9 5 0 3 -7 0 -20 -6 -30z
m-306 11 c3 -8 2 -12 -4 -9 -6 3 -10 10 -10 16 0 14 7 11 14 -7z m6633 -6 c-3
-8 -6 -5 -6 6 -1 11 2 17 5 13 3 -3 4 -12 1 -19z m44 -5 c-24 -43 -28 -46 -34
-28 -4 9 -3 13 3 10 5 -3 14 4 20 15 6 11 13 20 16 20 2 0 0 -8 -5 -17z
m-6533 -208 c-3 -3 -9 2 -12 12 -6 14 -5 15 5 6 7 -7 10 -15 7 -18z m408 -19
c101 -27 153 -65 349 -256 105 -102 203 -201 219 -220 17 -19 -16 9 -72 63
-63 62 -105 96 -113 91 -7 -4 -9 -3 -6 3 3 5 -17 32 -45 59 -50 47 -50 47 -15
6 39 -45 48 -63 20 -41 -26 21 -58 62 -58 75 0 18 -36 54 -47 48 -13 -8 -38
15 -32 30 6 17 -31 49 -58 50 -13 1 -30 6 -38 11 -8 6 -26 16 -40 23 l-25 12
30 -5 30 -5 -29 16 c-16 9 -31 12 -35 7 -3 -5 -17 -6 -31 -2 l-25 7 25 2 c24
1 24 2 4 10 -12 5 -43 12 -69 15 l-47 8 16 -25 c13 -20 28 -27 64 -30 92 -10
135 -40 344 -247 240 -236 268 -274 277 -370 l7 -69 -27 18 c-14 11 -32 27
-40 37 -13 17 -13 17 4 4 17 -13 18 -12 11 15 -14 61 -58 115 -256 311 -196
194 -257 242 -309 243 -15 0 -109 99 -109 114 0 11 74 6 126 -8z m5939 4 c16
-8 13 -9 -15 -8 -63 3 -101 -2 -95 -11 3 -5 1 -12 -4 -15 -5 -4 -12 -2 -16 3
-8 14 -35 2 -35 -15 0 -8 -5 -14 -11 -14 -5 0 -7 5 -3 11 4 7 -2 7 -17 -1 -35
-18 -38 -23 -9 -16 21 6 22 5 7 -4 -9 -6 -21 -9 -26 -5 -13 7 -97 -59 -93 -74
1 -7 -2 -10 -6 -7 -11 7 -291 -251 -347 -320 -65 -79 -66 -81 -91 -141 -13
-32 -24 -51 -24 -43 0 44 63 142 151 235 148 155 367 351 429 384 84 45 161
60 205 41z m-24 -59 c-12 -16 -69 -73 -127 -126 -58 -53 -127 -118 -153 -143
-158 -157 -320 -310 -288 -272 40 47 391 388 468 453 l44 38 -35 -7 c-53 -10
-84 -35 -294 -241 -193 -190 -244 -254 -255 -321 -5 -27 -15 -40 -46 -60 -22
-13 -34 -18 -27 -11 6 7 12 24 12 39 0 14 10 54 22 90 21 63 30 73 247 291
144 145 242 235 270 249 25 12 71 25 104 28 37 3 61 10 64 19 3 8 8 12 10 9 3
-3 -4 -18 -16 -35z m-6221 -56 c0 -5 -11 4 -25 20 -13 17 -24 35 -24 40 0 6
11 -3 24 -20 14 -16 25 -34 25 -40z m542 -242 c126 -126 239 -241 250 -256 11
-16 -82 74 -208 200 -125 125 -243 240 -262 256 -19 15 -29 27 -22 27 7 0 116
-102 242 -227z m-517 97 c32 -45 60 -92 61 -106 2 -15 6 -29 10 -33 4 -3 4 8
0 24 -6 24 48 -24 261 -236 237 -235 328 -314 459 -400 37 -24 39 -29 14 -29
-13 0 -20 3 -17 7 14 13 -49 43 -90 43 -59 0 -142 33 -211 85 -33 23 -133 114
-223 200 l-164 158 180 -179 c99 -98 180 -182 181 -186 1 -5 3 -11 4 -15 1 -5
2 -11 1 -15 0 -4 13 -16 29 -28 57 -41 124 -64 205 -70 l80 -7 -72 -1 c-51 -2
-86 4 -125 19 -59 23 -151 85 -144 98 3 4 -7 19 -22 32 l-27 24 24 -27 c14
-16 20 -28 14 -28 -19 0 -389 373 -427 430 -41 62 -76 163 -76 220 0 33 10
100 14 100 1 0 28 -36 61 -80z m6462 -24 c-6 -112 -24 -155 -105 -258 -56 -70
-133 -143 -152 -143 -5 0 -12 -4 -17 -9 -5 -5 -3 -6 5 -2 6 4 12 3 12 -2 0
-11 -70 -67 -85 -67 -5 -1 -9 -6 -8 -12 4 -17 -177 -183 -239 -220 -56 -34
-152 -64 -203 -62 -16 0 2 7 41 14 115 21 272 118 281 174 2 14 76 99 183 208
99 102 180 189 180 194 0 5 -32 -26 -71 -69 -39 -42 -131 -135 -205 -206 -74
-70 -131 -133 -127 -139 3 -6 1 -7 -6 -3 -6 4 -25 -4 -43 -19 -53 -45 -128
-77 -192 -82 -34 -3 -69 -10 -78 -15 -41 -20 -13 4 54 49 120 79 627 587 743
744 11 15 24 25 29 22 5 -3 6 -47 3 -97z m-5987 4 c0 -5 -2 -10 -4 -10 -3 0
-8 5 -11 10 -3 6 -1 10 4 10 6 0 11 -4 11 -10z m441 -292 c30 -58 19 -56 -12
3 -15 27 -23 46 -18 43 5 -3 19 -23 30 -46z m4679 -82 c0 -2 -8 -10 -17 -17
-16 -13 -17 -12 -4 4 13 16 21 21 21 13z m-163 -63 c-3 -10 -5 -4 -5 12 0 17
2 24 5 18 2 -7 2 -21 0 -30z m-4645 -14 c20 -10 88 -52 150 -92 62 -40 172
-108 245 -151 72 -43 146 -94 164 -112 86 -89 -11 -196 -124 -138 -173 89
-539 334 -567 378 -29 49 -23 113 14 139 15 10 73 -1 118 -24z m4946 11 c30
-28 30 -92 0 -137 -15 -21 -91 -78 -213 -157 -226 -146 -374 -226 -420 -226
-37 0 -82 31 -96 67 -20 54 33 102 251 225 69 39 161 96 205 127 103 72 193
120 226 121 14 0 35 -9 47 -20z m-4771 -52 c-2 -13 -4 -5 -4 17 -1 22 1 32 4
23 2 -10 2 -28 0 -40z m-26 5 c13 -16 12 -17 -3 -4 -17 13 -22 21 -14 21 2 0
10 -8 17 -17z m4499 -17 c0 -3 -4 -8 -10 -11 -5 -3 -10 -1 -10 4 0 6 5 11 10
11 6 0 10 -2 10 -4z m-3992 -97 c43 -11 360 -137 492 -196 79 -35 146 -80 165
-111 15 -23 12 -21 -21 9 -45 42 -100 73 -108 60 -5 -7 -249 85 -386 146 -83
37 -161 63 -188 62 -19 0 -11 -5 26 -15 48 -13 299 -112 467 -185 104 -46 99
-44 90 -28 -5 8 -5 11 1 6 5 -5 9 -12 9 -15 0 -4 21 -29 46 -55 26 -26 55 -64
65 -85 10 -20 24 -40 29 -44 15 -12 -18 -9 -53 3 -18 6 -30 15 -27 20 11 17
-68 89 -138 123 -105 53 -459 195 -515 207 -28 6 -58 6 -71 1 -21 -7 -17 -10
35 -27 108 -34 611 -251 602 -260 -2 -3 -114 44 -248 104 -135 60 -281 120
-324 135 -43 14 -113 45 -155 68 l-75 42 34 14 c78 33 167 40 248 21z m3730
-14 c23 -9 42 -20 42 -24 0 -4 -30 -22 -67 -41 -80 -42 -94 -47 -68 -26 19 16
17 17 -50 13 -60 -4 -103 -18 -305 -101 -129 -53 -254 -106 -278 -118 -44 -22
-112 -91 -112 -114 0 -14 -53 -35 -84 -33 -17 1 -18 2 -3 6 9 2 29 29 42 58
42 88 101 130 285 198 52 20 159 63 237 96 161 67 229 81 287 57 21 -9 35 -20
31 -26 -4 -6 10 -3 29 7 20 9 36 20 36 24 0 16 -104 39 -164 37 l-61 -1 50 -7
50 -7 -42 -1 c-23 -1 -64 -9 -90 -18 -33 -11 -48 -13 -51 -5 -2 6 -8 11 -14
11 -7 0 -6 -5 1 -14 9 -11 5 -16 -20 -25 -39 -13 -49 -14 -29 -1 8 5 12 12 8
15 -3 4 -47 -11 -97 -32 -77 -33 -89 -41 -78 -54 10 -12 10 -12 -2 -1 -20 16
-36 15 -22 -2 9 -11 7 -15 -11 -19 -27 -8 -38 1 -18 13 34 22 -12 6 -115 -38
-85 -37 -109 -52 -107 -65 2 -9 -2 -17 -8 -17 -5 0 -10 5 -10 10 0 24 -71 -33
-119 -95 l-23 -30 17 30 c45 77 127 134 282 195 59 23 151 61 203 83 194 82
216 88 315 84 55 -2 106 -11 133 -22z m-208 -140 c-35 -13 -66 -22 -68 -20 -5
5 100 44 118 44 8 0 -14 -11 -50 -24z m634 10 c-4 -8 -13 -15 -22 -15 -13 0
-12 3 4 15 24 18 25 18 18 0z m-1071 -55 c-39 -15 -85 -34 -103 -43 -22 -12
-29 -13 -21 -3 10 12 53 32 151 73 14 6 29 8 34 5 5 -3 -22 -17 -61 -32z
m1104 34 c-3 -3 -12 -4 -19 -1 -8 3 -5 6 6 6 11 1 17 -2 13 -5z m-757 -23 c-8
-5 -67 -30 -130 -56 -63 -26 -179 -78 -257 -115 -146 -70 -194 -86 -80 -28
156 81 562 253 467 199z m-3656 -208 c40 -33 116 -70 323 -159 236 -101 281
-117 396 -145 l98 -23 -38 -20 c-53 -28 -157 -27 -243 3 -122 42 -515 221
-564 257 -36 27 -55 51 -76 98 -19 42 -37 66 -55 74 -14 7 -28 12 -30 12 -12
0 -2 -34 30 -98 68 -136 157 -189 615 -373 52 -21 89 -38 81 -39 -18 0 -334
131 -460 192 -82 39 -118 63 -166 112 -60 60 -106 139 -118 202 l-6 32 92 -51
c51 -28 105 -61 121 -74z m4147 57 c-9 -21 -10 -19 -4 14 5 32 3 37 -8 31 -11
-7 -10 -4 1 10 14 18 15 17 18 -6 2 -14 -2 -36 -7 -49z m-61 11 c0 -19 -82
-130 -115 -155 -49 -38 -186 -104 -370 -179 -275 -112 -342 -125 -457 -89
l-57 18 134 32 c97 23 188 55 337 118 290 123 304 129 393 186 44 28 89 57
100 64 24 16 35 17 35 5z m36 -79 c-23 -44 -103 -123 -168 -166 -65 -44 -450
-208 -553 -237 -134 -37 -292 -19 -358 41 l-32 29 35 0 c30 -1 31 -2 11 -8
l-24 -7 24 -15 c78 -48 221 -64 325 -35 115 33 471 181 555 232 61 36 173 149
184 184 4 12 9 19 12 17 2 -3 -3 -19 -11 -35z m-3306 -18 c0 -2 -13 2 -30 11
-16 9 -30 18 -30 21 0 2 14 -2 30 -11 17 -9 30 -18 30 -21z m1697 4 c54 -20
123 -60 147 -87 17 -18 17 -21 3 -27 -9 -3 -22 -4 -29 -1 -7 3 -2 6 11 6 22 1
21 3 -15 32 -36 30 -93 59 -111 59 -4 -1 3 -7 16 -14 15 -8 20 -16 12 -20 -6
-4 -11 -3 -11 1 0 5 -26 15 -57 22 -44 9 -173 11 -538 7 -264 -2 -498 -6 -520
-9 -46 -4 -92 -26 -118 -55 -17 -19 -17 -20 10 -25 19 -3 31 0 39 12 7 9 34
28 60 41 l49 25 483 3 c535 3 559 1 622 -58 18 -16 37 -30 44 -30 6 0 4 -5 -4
-10 -25 -16 -60 -11 -93 13 l-32 22 -495 3 c-456 2 -499 1 -540 -15 -44 -18
-39 -18 425 -23 l470 -5 -473 -3 c-341 -1 -491 1 -537 10 -36 7 -65 16 -65 19
0 29 136 104 212 118 24 4 257 7 518 6 395 -2 482 -4 517 -17z m-1557 -23 c0
-5 -5 -3 -10 5 -5 8 -10 20 -10 25 0 6 5 3 10 -5 5 -8 10 -19 10 -25z m2030
16 c-14 -27 -13 -31 8 -32 11 -1 8 -4 -8 -8 -14 -4 -26 -7 -28 -5 -5 3 27 64
34 64 2 0 0 -9 -6 -19z m-1585 -41 c-3 -5 -12 -10 -18 -10 -7 0 -6 4 3 10 19
12 23 12 15 0z m-507 -29 c111 -29 268 -60 505 -101 107 -19 169 -45 181 -76
13 -34 5 -67 -23 -95 -25 -25 -37 -29 -83 -29 -29 0 -71 5 -93 10 -22 5 -94
19 -160 30 -289 50 -488 95 -535 120 -28 15 -53 76 -45 109 18 71 71 77 253
32z m2397 4 c55 -54 14 -131 -87 -165 -31 -10 -151 -37 -265 -60 -114 -22
-264 -52 -333 -65 -100 -20 -132 -23 -162 -15 -87 25 -106 125 -30 164 15 7
81 24 147 36 110 21 334 67 530 111 118 26 170 25 200 -6z m-812 -62 c-23 -2
-64 -2 -90 0 -26 2 -7 3 42 3 50 0 71 -1 48 -3z m-1572 -197 c-6 -7 -39 -26
-74 -42 -68 -31 -182 -44 -246 -27 -26 7 -7 9 75 8 100 0 114 2 169 29 51 24
57 29 40 36 -16 7 -14 9 14 9 27 1 31 -2 22 -13z m379 -63 c2 -2 -13 -3 -34
-1 -20 1 -40 6 -43 11 -5 8 67 -1 77 -10z m1439 -28 c-18 -25 -48 -57 -67 -72
-48 -36 -142 -82 -183 -88 -22 -4 -14 1 24 15 32 11 77 32 100 47 45 27 127
102 127 115 0 4 -12 9 -27 9 l-28 1 30 8 c55 14 57 11 24 -35z m-1279 -2 c48
-15 119 -17 525 -17 458 -1 473 0 572 22 57 13 108 21 115 19 8 -3 5 -6 -5 -6
-10 -1 -32 -14 -48 -30 -45 -46 -125 -80 -215 -92 -51 -6 -223 -9 -465 -7
-334 4 -391 7 -439 22 -54 18 -111 53 -140 87 -8 9 -24 20 -35 23 -11 3 3 3
30 0 28 -3 75 -12 105 -21z m-43 -125 l68 -33 485 -5 485 -6 -485 1 -485 0
-66 32 c-66 33 -151 100 -169 133 -5 10 15 -6 45 -36 31 -29 84 -67 122 -86z"/>
<path d="M3516 8955 c-3 -8 -13 -15 -22 -15 -13 0 -12 -4 6 -18 38 -31 19 -54
-83 -107 -50 -27 -108 -58 -127 -70 -113 -70 -320 -175 -346 -175 -33 0 -56
14 -72 44 -9 18 -11 17 -26 -12 -23 -44 -20 -79 10 -109 30 -30 62 -27 125 12
77 50 452 257 508 281 74 33 91 50 91 91 0 41 -13 69 -39 83 -14 7 -20 6 -25
-5z"/>
<path d="M6707 8949 c-11 -6 -26 -27 -34 -47 -13 -32 -13 -37 4 -60 10 -14 68
-51 128 -81 108 -55 256 -139 425 -240 47 -28 95 -51 108 -51 13 0 35 12 49
26 21 22 25 32 20 66 -3 26 -15 51 -31 67 l-26 26 6 -31 c4 -22 1 -36 -11 -48
-32 -31 -71 -15 -331 135 -88 50 -187 104 -221 119 -68 31 -79 52 -44 84 36
33 2 60 -42 35z"/>
<path d="M5164 8421 c-26 -29 -39 -35 -73 -35 -22 -1 -41 -4 -41 -7 0 -10 49
-29 74 -29 24 0 76 35 76 50 0 5 -12 -2 -26 -15 -17 -16 -39 -25 -58 -25 l-31
0 42 21 c23 11 49 32 58 46 24 37 14 34 -21 -6z"/>
<path d="M4101 8133 c-2 -37 -13 -57 -22 -42 -4 7 -3 22 3 33 8 15 0 11 -26
-12 -21 -18 -51 -36 -68 -39 l-30 -6 23 -13 c37 -21 66 -16 100 14 24 22 30
34 26 57 -3 20 -5 23 -6 8z m-31 -54 c0 -16 -4 -19 -17 -15 -9 4 -20 1 -24 -5
-4 -7 -12 -8 -20 -4 -9 6 -6 11 12 18 13 6 27 9 32 9 4 -1 7 3 7 8 0 6 2 10 5
10 3 0 5 -9 5 -21z"/>
<path d="M6252 8110 c-28 -26 -54 -35 -100 -33 -9 1 -8 -5 4 -18 26 -29 79
-25 109 7 14 15 25 38 25 50 0 13 -1 24 -2 24 -2 0 -18 -14 -36 -30z m18 -21
c-12 -21 -17 -24 -65 -33 -27 -5 -26 -4 10 14 22 11 44 25 49 30 16 16 18 12
6 -11z"/>
<path d="M5161 8120 c-2 -14 37 -111 41 -104 3 5 -5 32 -18 59 -12 28 -23 48
-23 45z"/>
<path d="M5205 8000 c-7 -11 14 -89 27 -105 5 -5 2 13 -7 40 -23 76 -18 76 21
0 41 -81 83 -149 136 -222 21 -29 35 -53 31 -53 -4 0 -2 -5 4 -11 6 -6 9 -18
6 -27 -5 -10 -2 -13 6 -8 7 5 10 15 7 25 -5 14 -4 14 7 -1 8 -10 18 -14 22
-10 5 4 5 1 1 -6 -4 -7 -11 -10 -16 -7 -12 8 -21 -25 -14 -58 3 -20 1 -26 -7
-22 -8 6 -8 2 0 -13 8 -15 8 -22 -2 -26 -6 -3 4 -3 23 0 26 3 31 2 20 -6 -12
-8 -13 -11 -1 -19 11 -7 11 -9 0 -14 -11 -3 -9 -9 6 -21 16 -13 17 -15 2 -10
-11 4 -16 2 -14 -7 2 -8 2 -11 0 -6 -8 13 -21 7 -26 -12 -3 -15 -1 -18 11 -14
10 4 13 2 8 -5 -4 -7 -38 -13 -84 -14 -42 0 -61 -3 -42 -5 19 -1 87 -8 150
-14 63 -6 162 -19 220 -30 130 -23 125 -23 127 2 5 60 125 341 167 389 8 8 21
30 31 49 13 27 19 31 27 20 7 -11 8 -9 4 5 -4 11 -3 22 2 25 8 6 52 120 52
136 0 4 -28 -19 -63 -51 -88 -82 -261 -215 -329 -253 -147 -83 -257 -37 -383
157 -23 37 -59 100 -79 140 -38 75 -41 79 -51 62z m265 -451 c0 -5 -4 -9 -8
-9 -5 0 -9 7 -9 15 0 8 4 12 9 9 4 -3 8 -9 8 -15z m0 -27 c0 -5 -7 -9 -15 -9
-8 0 -15 4 -15 9 0 4 7 8 15 8 8 0 15 -4 15 -8z"/>
<path d="M4136 7920 c4 -14 22 -74 40 -135 18 -60 33 -100 33 -88 1 12 -3 32
-8 45 -4 13 -11 35 -15 50 -9 40 15 27 43 -22 12 -22 24 -40 26 -40 2 0 -6 23
-16 51 -11 27 -17 54 -15 58 3 4 -18 30 -46 57 -41 40 -49 45 -42 24z"/>
<path d="M6037 7741 c-4 -17 -3 -21 5 -13 5 5 8 16 6 23 -3 8 -7 3 -11 -10z"/>
<path d="M5263 7655 c0 -38 2 -53 4 -32 2 20 2 52 0 70 -2 17 -4 1 -4 -38z"/>
<path d="M4216 7645 c8 -37 14 -45 14 -19 0 10 -5 26 -10 34 -8 11 -9 7 -4
-15z"/>
<path d="M4241 7554 c0 -11 3 -14 6 -6 3 7 2 16 -1 19 -3 4 -6 -2 -5 -13z"/>
<path d="M4251 7520 c0 -8 4 -24 9 -35 5 -13 9 -14 9 -5 0 8 -4 24 -9 35 -5
13 -9 14 -9 5z"/>
<path d="M5253 7475 c0 -33 2 -45 4 -27 2 18 2 45 0 60 -2 15 -4 0 -4 -33z"/>
<path d="M5432 7458 c-15 -15 -15 -28 0 -28 6 0 8 3 5 7 -4 3 1 12 11 19 9 7
12 14 7 14 -6 0 -16 -5 -23 -12z"/>
<path d="M4276 7430 c4 -19 11 -44 15 -55 6 -14 7 -9 3 15 -4 19 -11 44 -15
55 -6 14 -7 9 -3 -15z"/>
<path d="M2407 7945 c-15 -14 -27 -29 -27 -32 0 -4 15 6 32 23 18 16 35 30 37
32 2 1 0 2 -5 2 -5 0 -22 -11 -37 -25z"/>
<path d="M2385 8207 c29 -17 26 -43 -5 -39 -19 2 -22 0 -12 -10 20 -20 14 -59
-15 -97 -38 -51 -226 -264 -299 -338 -49 -51 -67 -63 -92 -63 -24 0 -35 6 -46
28 -16 30 -22 31 -42 5 -20 -27 -18 -89 6 -113 52 -52 121 -31 175 55 20 30
71 93 113 138 278 300 281 304 282 353 0 34 -46 94 -72 94 -7 -1 -4 -6 7 -13z"/>
<path d="M7786 8163 c-3 -4 -6 -21 -6 -38 0 -34 36 -90 85 -135 26 -24 94
-102 282 -322 49 -57 92 -106 98 -110 5 -4 27 -8 48 -8 72 0 110 73 73 140
l-14 25 -12 -27 c-7 -14 -21 -29 -32 -31 -45 -12 -57 -1 -358 333 -62 69 -117
135 -123 147 -10 23 -31 36 -41 26z"/>
<path d="M8625 7645 c40 -56 51 -66 29 -27 -10 18 -28 41 -38 50 -12 10 -8 0
9 -23z"/>
<path d="M8695 7530 c9 -16 18 -30 21 -30 2 0 -2 14 -11 30 -9 17 -18 30 -21
30 -2 0 2 -13 11 -30z"/>
<path d="M8730 7470 c6 -11 13 -20 16 -20 2 0 0 9 -6 20 -6 11 -13 20 -16 20
-2 0 0 -9 6 -20z"/>
<path d="M8548 6927 c17 -21 32 -43 32 -49 0 -6 2 -9 5 -6 10 10 -16 53 -43
73 -24 17 -24 16 6 -18z"/>
<path d="M2798 7269 c-47 -18 -61 -66 -60 -210 2 -145 20 -244 63 -335 61
-129 140 -185 316 -224 200 -44 273 -13 360 155 92 180 118 325 70 396 -45 68
-250 147 -537 205 -123 25 -169 28 -212 13z"/>
<path d="M4448 6983 c7 -3 16 -2 19 1 4 3 -2 6 -13 5 -11 0 -14 -3 -6 -6z"/>
<path d="M4055 6961 c-99 -46 -124 -129 -91 -303 29 -151 103 -285 212 -388
36 -33 82 -69 104 -80 88 -45 329 -89 413 -76 48 8 105 37 134 68 30 31 87
158 107 238 10 36 20 104 23 152 5 80 4 92 -21 142 -44 89 -137 143 -336 196
-260 67 -467 87 -545 51z"/>
<path d="M4508 6973 c7 -3 16 -2 19 1 4 3 -2 6 -13 5 -11 0 -14 -3 -6 -6z"/>
<path d="M4558 6963 c7 -3 16 -2 19 1 4 3 -2 6 -13 5 -11 0 -14 -3 -6 -6z"/>
<path d="M1619 7053 c-5 -17 -13 -21 -31 -18 -21 4 -24 1 -24 -33 0 -23 -27
-98 -73 -202 -40 -91 -86 -201 -103 -245 -45 -122 -83 -151 -133 -101 -28 28
-35 24 -35 -20 0 -44 20 -86 37 -80 8 3 11 1 8 -4 -11 -18 44 -23 70 -6 35 23
49 48 88 161 19 55 61 159 92 230 115 260 116 265 113 303 -2 30 -4 33 -9 15z
m-374 -623 c-3 -5 1 -10 9 -10 9 0 16 -4 16 -10 0 -5 -4 -10 -10 -10 -5 0 -10
-8 -10 -17 0 -15 -2 -16 -10 -3 -13 20 -13 60 1 60 5 0 7 -4 4 -10z m105 -10
c0 -5 -5 -10 -11 -10 -5 0 -7 5 -4 10 3 6 8 10 11 10 2 0 4 -4 4 -10z"/>
<path d="M8626 7082 c-3 -5 -8 -26 -11 -48 -6 -34 4 -64 74 -227 44 -103 99
-241 121 -305 53 -152 92 -193 153 -160 35 18 46 40 47 88 0 60 -15 84 -29 47
-15 -39 -60 -48 -84 -15 -19 25 -158 346 -205 475 -19 51 -32 73 -44 73 -24 0
-29 13 -18 49 8 30 7 40 -4 23z"/>
<path d="M6638 6583 c6 -2 18 -2 25 0 6 3 1 5 -13 5 -14 0 -19 -2 -12 -5z"/>
<path d="M6698 6573 c7 -3 16 -2 19 1 4 3 -2 6 -13 5 -11 0 -14 -3 -6 -6z"/>
<path d="M6981 6486 c10 -9 109 -56 109 -51 0 5 -95 55 -106 55 -4 0 -5 -2 -3
-4z"/>
<path d="M6490 4846 c0 -3 9 -10 20 -16 11 -6 20 -8 20 -6 0 3 -9 10 -20 16
-11 6 -20 8 -20 6z"/>
<path d="M6594 4786 c11 -9 24 -16 30 -16 12 0 7 5 -24 19 -24 11 -24 11 -6
-3z"/>
<path d="M7603 4766 c0 -18 3 -24 9 -18 7 7 7 16 0 28 -8 14 -9 13 -9 -10z"/>
<path d="M6640 4767 c0 -3 35 -24 78 -47 168 -90 303 -194 371 -285 l22 -30
-18 34 c-24 43 -110 123 -204 187 -75 52 -249 150 -249 141z"/>
<path d="M6650 4660 c8 -5 20 -10 25 -10 6 0 3 5 -5 10 -8 5 -19 10 -25 10 -5
0 -3 -5 5 -10z"/>
<path d="M6690 4643 c0 -1 8 -7 18 -12 13 -7 19 -6 19 2 0 7 -9 13 -19 13 -10
0 -18 -1 -18 -3z"/>
<path d="M6740 4616 c0 -2 7 -7 16 -10 8 -3 12 -2 9 4 -6 10 -25 14 -25 6z"/>
<path d="M5730 4375 c0 -5 5 -17 10 -25 5 -8 10 -10 10 -5 0 6 -5 17 -10 25
-5 8 -10 11 -10 5z"/>
<path d="M5730 4115 c0 -76 2 -136 5 -134 7 7 8 259 1 266 -3 4 -6 -56 -6
-132z"/>
<path d="M5750 4196 c0 -11 40 -86 45 -86 3 0 -4 19 -16 43 -23 45 -29 54 -29
43z"/>
<path d="M5810 4080 c6 -11 13 -20 16 -20 2 0 0 9 -6 20 -6 11 -13 20 -16 20
-2 0 0 -9 6 -20z"/>
<path d="M7222 4050 c0 -14 2 -19 5 -12 2 6 2 18 0 25 -3 6 -5 1 -5 -13z"/>
<path d="M5836 4038 c52 -88 211 -247 317 -318 37 -24 64 -47 61 -52 -3 -4 1
-5 9 -3 7 3 38 -6 68 -20 30 -13 69 -28 86 -31 18 -3 31 -9 29 -13 -2 -3 8 -6
22 -7 15 -1 64 -7 110 -14 46 -6 98 -10 117 -8 19 2 35 0 35 -4 0 -4 -17 -9
-37 -9 -21 -1 -29 -4 -19 -6 15 -4 16 -7 5 -14 -9 -6 -10 -9 -2 -9 6 0 15 5
18 10 8 13 25 13 25 1 0 -5 -9 -12 -20 -15 -11 -3 -30 -9 -42 -12 -20 -6 -21
-5 -9 10 9 10 10 16 2 16 -6 0 -11 -4 -11 -10 0 -5 -7 -7 -16 -3 -8 3 -13 12
-10 19 3 8 1 14 -3 14 -5 0 -18 3 -28 7 -15 6 -16 4 -6 -9 17 -19 5 -30 -18
-17 -12 6 -19 6 -19 0 0 -5 8 -12 18 -15 14 -4 14 -5 -3 -4 -50 1 -61 -2 -45
-12 12 -8 12 -10 1 -10 -8 0 -11 -7 -8 -20 4 -15 0 -20 -13 -20 -11 0 -22 5
-26 12 -4 6 -3 8 3 5 6 -4 14 0 17 9 4 10 2 13 -7 7 -7 -4 -5 3 4 17 9 14 19
24 23 22 4 -1 14 4 22 13 9 8 20 13 25 10 5 -4 9 -1 9 4 0 14 -27 14 -35 1 -8
-13 -35 -13 -35 -1 0 5 6 11 13 14 6 2 2 2 -10 1 -12 -2 -24 2 -26 9 -3 7 -6
5 -6 -5 -1 -10 3 -18 8 -18 5 0 11 -7 15 -15 3 -9 0 -15 -9 -15 -19 0 -47 29
-39 42 3 5 -3 4 -14 -3 -26 -16 -53 -5 -46 18 5 15 4 15 -4 3 -7 -8 -7 -19 -2
-25 5 -6 6 -16 2 -22 -5 -8 -12 -1 -21 18 -7 16 -19 29 -27 29 -8 0 -14 5 -14
12 0 6 -2 9 -5 6 -9 -9 10 -43 24 -43 8 0 15 -9 17 -20 3 -20 3 -20 -12 -1
-10 14 -14 16 -14 5 -1 -8 -8 -1 -16 14 -15 27 -16 28 -29 10 -11 -14 -16 -16
-26 -5 -15 14 -33 16 -24 3 3 -6 -3 -14 -13 -20 -14 -7 -19 -6 -19 4 0 8 14
21 30 28 l29 15 -22 15 c-15 11 -21 22 -17 36 3 14 1 18 -9 14 -8 -3 -11 -10
-7 -16 4 -7 -1 -8 -13 -4 -16 6 -17 5 -4 -5 14 -12 14 -15 -2 -30 -17 -17 -18
-17 -18 10 0 18 -5 29 -15 29 -8 0 -12 -4 -10 -8 6 -9 -26 -22 -34 -14 -3 3 1
10 8 14 7 5 9 11 4 14 -5 3 -14 -3 -21 -14 -10 -16 -10 -20 2 -25 8 -3 24 -1
35 6 23 12 29 -3 11 -30 -9 -13 -10 -13 -10 0 0 17 -36 20 -60 5 -9 -6 -11 -4
-5 5 5 9 2 10 -13 6 -22 -7 -39 8 -22 19 5 3 10 1 10 -5 0 -8 6 -8 21 0 17 10
18 14 7 28 -11 13 -11 15 2 10 8 -3 20 0 26 7 9 9 5 12 -18 12 -16 0 -33 5
-37 12 -6 10 -10 9 -14 -3 -4 -11 -1 -16 12 -16 10 0 18 -7 18 -15 0 -8 -7
-15 -14 -15 -8 0 -11 5 -7 11 4 7 1 10 -7 7 -8 -3 -13 -12 -11 -22 4 -21 -9
-20 -61 5 -28 14 -44 28 -42 38 1 9 0 10 -2 4 -7 -19 -11 -17 -92 37 -40 27
-68 43 -61 35 45 -54 330 -200 485 -248 473 -147 937 -59 1191 226 45 51 91
117 81 117 -2 0 -16 -18 -30 -39 -38 -57 -115 -133 -127 -126 -6 4 -9 1 -8 -6
4 -18 -89 -79 -110 -73 -13 5 -14 4 -3 -4 11 -8 5 -14 -26 -31 -22 -11 -43
-17 -47 -14 -3 4 -6 2 -6 -4 0 -6 -9 -9 -20 -6 -13 4 -20 0 -20 -10 0 -21 -53
-29 -90 -14 -23 10 -27 16 -18 25 7 7 8 12 4 12 -4 0 -16 -10 -25 -21 -15 -18
-21 -20 -39 -10 -19 10 -21 9 -16 -6 4 -12 -1 -10 -15 7 -14 16 -19 19 -15 8
4 -13 1 -18 -11 -18 -12 0 -15 5 -11 17 5 13 0 11 -21 -7 -15 -14 -21 -17 -14
-7 9 11 10 17 2 17 -15 0 -14 27 2 33 18 8 -24 8 -51 1 -17 -5 -20 -10 -12
-19 8 -10 8 -15 -1 -21 -8 -4 -9 -3 -5 4 4 7 2 12 -3 12 -6 0 -11 6 -11 14 0
10 16 17 48 21 26 3 55 10 65 16 10 5 23 7 30 3 7 -4 9 -4 5 1 -4 4 25 23 63
41 97 47 188 138 234 236 19 40 37 89 40 108 4 21 -3 9 -17 -30 -66 -187 -203
-308 -398 -354 -75 -18 -226 -21 -318 -6 -208 34 -451 190 -593 381 -46 62
-73 90 -53 57z m354 -434 c0 -2 -9 -8 -19 -14 -16 -8 -19 -7 -16 8 2 9 4 18 4
19 1 4 31 -9 31 -13z m530 -45 c0 -11 -4 -17 -10 -14 -5 3 -10 13 -10 21 0 8
5 14 10 14 6 0 10 -9 10 -21z m-465 -8 c3 -5 2 -12 -3 -15 -5 -3 -9 1 -9 9 0
17 3 19 12 6z m139 -7 c3 -8 2 -12 -4 -9 -11 7 -54 -14 -46 -22 3 -3 12 0 20
6 17 14 57 -1 55 -22 0 -9 -2 -9 -6 1 -7 17 -40 15 -51 -4 -6 -11 -16 -13 -35
-9 l-26 7 22 22 c18 18 54 44 63 46 1 0 5 -7 8 -16z m-167 0 c-2 -3 -17 -7
-33 -10 -17 -2 -24 -1 -17 4 13 8 58 14 50 6z m347 -20 c9 -3 16 -13 16 -21 0
-8 -6 -13 -12 -10 -7 2 -12 10 -10 16 3 15 -15 14 -21 -1 -2 -7 -8 -10 -12 -6
-8 8 2 28 15 28 4 0 15 -3 24 -6z m420 -14 c25 0 17 -8 -14 -13 -14 -3 -29 -6
-35 -7 -5 -1 -17 -2 -25 -1 -13 1 -13 3 -1 10 8 5 20 7 28 4 9 -4 11 0 7 13
-6 16 -5 17 7 7 7 -7 22 -13 33 -13z m-454 -42 c0 -5 -7 -8 -15 -8 -9 0 -12 6
-8 17 4 11 3 14 -5 9 -8 -5 -10 -2 -6 9 6 14 8 14 20 -2 7 -10 14 -21 14 -25z
m97 20 c-3 -8 -6 -5 -6 6 -1 11 2 17 5 13 3 -3 4 -12 1 -19z m141 6 c5 3 9 -1
9 -9 0 -16 -31 -4 -43 18 -6 8 -3 8 9 -1 9 -8 20 -11 25 -8z m92 6 c0 -5 -4
-10 -10 -10 -5 0 -10 5 -10 10 0 6 5 10 10 10 6 0 10 -4 10 -10z m-260 -15
c-13 -16 -60 -21 -60 -6 0 4 11 6 25 3 15 -2 25 0 25 7 0 6 5 11 11 11 8 0 8
-5 -1 -15z m244 -18 c-11 -6 -19 -5 -25 4 -8 12 -11 12 -19 -1 -8 -12 -10 -11
-10 7 0 20 2 20 35 10 30 -9 33 -12 19 -20z m46 12 c0 -5 -4 -9 -8 -9 -5 0 -9
7 -9 15 0 8 4 12 9 9 4 -3 8 -9 8 -15z m-237 -26 c-7 -2 -21 -2 -30 0 -10 3
-4 5 12 5 17 0 24 -2 18 -5z"/>
<path d="M6330 3500 c0 -5 5 -10 11 -10 5 0 7 5 4 10 -3 6 -8 10 -11 10 -2 0
-4 -4 -4 -10z"/>
<path d="M7536 3985 c-9 -26 -7 -32 5 -12 6 10 9 21 6 23 -2 3 -7 -2 -11 -11z"/>
<path d="M5722 3930 c0 -19 2 -27 5 -17 2 9 2 25 0 35 -3 9 -5 1 -5 -18z"/>
<path d="M5702 3834 c-6 -32 -10 -59 -8 -61 6 -6 28 95 24 108 -2 6 -9 -15
-16 -47z"/>
<path d="M7214 3739 c-3 -6 -2 -15 3 -20 5 -5 9 -1 9 11 0 23 -2 24 -12 9z"/>
<path d="M7280 3696 c7 -7 13 -7 20 0 6 6 3 10 -10 10 -13 0 -16 -4 -10 -10z"/>
<path d="M5896 3683 c-7 -18 -4 -24 16 -27 7 -1 19 -5 27 -10 19 -12 32 13 18
35 -6 10 -13 16 -16 14 -2 -3 2 -11 9 -20 19 -23 -6 -19 -29 4 -17 17 -20 17
-25 4z"/>
<path d="M6126 3677 c3 -10 9 -15 12 -12 3 3 0 11 -7 18 -10 9 -11 8 -5 -6z"/>
<path d="M7224 3652 c-16 -15 -25 -17 -39 -10 -13 8 -16 7 -11 -1 4 -6 1 -11
-6 -11 -11 0 -11 -2 0 -9 19 -12 63 -1 92 22 14 11 17 17 8 14 -9 -3 -18 -1
-20 4 -2 5 -13 1 -24 -9z"/>
<path d="M7096 3631 c-4 -5 -3 -17 0 -26 5 -11 0 -18 -15 -22 -11 -3 -18 -9
-15 -14 3 -5 0 -9 -6 -9 -6 0 -8 -4 -5 -10 3 -5 -1 -10 -10 -10 -9 0 -13 5
-10 11 4 6 -2 5 -14 -3 -15 -9 -17 -14 -7 -20 20 -11 54 2 59 23 3 12 12 17
26 14 18 -3 20 0 15 21 -5 20 -3 23 12 18 15 -5 16 -4 4 4 -8 6 -18 8 -24 5
-5 -4 -7 1 -3 10 7 18 2 23 -7 8z"/>
<path d="M6217 3596 c-4 -10 -5 -21 -2 -24 9 -9 17 6 13 25 -3 17 -4 17 -11
-1z"/>
<path d="M7160 3595 c0 -9 5 -15 11 -13 6 2 11 8 11 13 0 5 -5 11 -11 13 -6 2
-11 -4 -11 -13z"/>
<path d="M7024 3592 c3 -5 0 -13 -6 -15 -9 -4 -10 -6 -1 -6 17 -1 25 16 12 25
-7 4 -9 3 -5 -4z"/>
<path d="M6960 3580 c0 -5 5 -10 11 -10 5 0 7 5 4 10 -3 6 -8 10 -11 10 -2 0
-4 -4 -4 -10z"/>
<path d="M7130 3579 c0 -5 5 -7 10 -4 6 3 10 8 10 11 0 2 -4 4 -10 4 -5 0 -10
-5 -10 -11z"/>
<path d="M6895 3569 c-4 -6 -5 -12 -2 -15 2 -3 7 2 10 11 7 17 1 20 -8 4z"/>
<path d="M6926 3561 c-4 -5 -2 -12 3 -15 5 -4 12 -2 15 3 4 5 2 12 -3 15 -5 4
-12 2 -15 -3z"/>
<path d="M6990 3560 c0 -5 5 -10 11 -10 5 0 7 5 4 10 -3 6 -8 10 -11 10 -2 0
-4 -4 -4 -10z"/>
<path d="M9241 6054 c0 -11 3 -14 6 -6 3 7 2 16 -1 19 -3 4 -6 -2 -5 -13z"/>
<path d="M9252 6010 c0 -14 2 -19 5 -12 2 6 2 18 0 25 -3 6 -5 1 -5 -13z"/>
<path d="M8782 6340 c0 -14 2 -19 5 -12 2 6 2 18 0 25 -3 6 -5 1 -5 -13z"/>
<path d="M8920 5735 c0 -5 5 -17 10 -25 5 -8 10 -10 10 -5 0 6 -5 17 -10 25
-5 8 -10 11 -10 5z"/>
<path d="M2730 6306 c0 -2 8 -10 18 -17 15 -13 16 -12 3 4 -13 16 -21 21 -21
13z"/>
<path d="M3022 5315 c-1 -181 -5 -555 -8 -830 -7 -553 -2 -648 43 -747 14 -32
33 -63 41 -70 13 -12 14 -10 3 10 -12 22 -11 23 9 17 17 -6 21 -4 14 6 -6 10
-3 10 11 -1 14 -11 17 -11 11 -1 -5 8 3 6 20 -5 l29 -19 -22 35 c-12 19 -34
71 -50 115 l-28 80 -5 780 c-3 429 -7 742 -9 695 -2 -47 -3 -96 -3 -110 1 -19
-1 -21 -8 -10 -5 8 -7 17 -4 21 2 4 -2 9 -8 12 -10 3 -10 9 -1 25 10 17 9 20
-5 18 -15 -3 -18 14 -22 153 -4 119 -6 78 -8 -174z m15 -167 c-2 -13 -4 -5 -4
17 -1 22 1 32 4 23 2 -10 2 -28 0 -40z"/>
<path d="M3410 4895 c0 -5 5 -17 10 -25 5 -8 10 -10 10 -5 0 6 -5 17 -10 25
-5 8 -10 11 -10 5z"/>
<path d="M3500 4675 c0 -5 5 -17 10 -25 5 -8 10 -10 10 -5 0 6 -5 17 -10 25
-5 8 -10 11 -10 5z"/>
<path d="M2892 4075 c0 -16 2 -22 5 -12 2 9 2 23 0 30 -3 6 -5 -1 -5 -18z"/>
<path d="M3830 4035 c0 -5 5 -17 10 -25 5 -8 10 -10 10 -5 0 6 -5 17 -10 25
-5 8 -10 11 -10 5z"/>
<path d="M2893 3915 c0 -38 2 -53 4 -32 2 20 2 52 0 70 -2 17 -4 1 -4 -38z"/>
<path d="M4743 3905 c0 -22 2 -30 4 -17 2 12 2 30 0 40 -3 9 -5 -1 -4 -23z"/>
<path d="M5092 3890 c0 -19 2 -27 5 -17 2 9 2 25 0 35 -3 9 -5 1 -5 -18z"/>
<path d="M4732 3840 c0 -14 2 -19 5 -12 2 6 2 18 0 25 -3 6 -5 1 -5 -13z"/>
<path d="M5102 3830 c0 -14 2 -19 5 -12 2 6 2 18 0 25 -3 6 -5 1 -5 -13z"/>
<path d="M2862 3763 c-15 -48 -8 -55 8 -8 7 20 10 38 8 41 -3 2 -10 -13 -16
-33z"/>
<path d="M4685 3713 c-17 -34 -27 -59 -23 -57 12 7 60 104 56 112 -2 4 -17
-21 -33 -55z"/>
<path d="M5126 3750 c8 -34 50 -107 91 -157 l34 -43 -336 0 -337 0 36 40 c20
22 36 43 36 47 0 4 -20 -15 -44 -42 l-44 -50 92 -2 c50 -2 211 -4 358 -5 l267
-3 -28 30 c-37 40 -87 114 -111 167 -11 24 -17 32 -14 18z"/>
<path d="M2836 3693 c-6 -14 -5 -15 5 -6 7 7 10 15 7 18 -3 3 -9 -2 -12 -12z"/>
<path d="M2789 3623 c-19 -25 -40 -55 -48 -65 -13 -17 -6 -18 187 -18 110 0
208 -3 217 -7 10 -3 -11 23 -46 58 -35 35 -66 63 -68 61 -3 -1 1 -8 7 -14 15
-15 16 -31 0 -22 -7 4 -8 3 -4 -5 4 -6 11 -9 15 -6 5 2 16 -4 25 -14 10 -10
14 -21 9 -23 -4 -3 -3 -4 3 -2 6 1 17 -2 25 -7 8 -5 -60 -9 -174 -9 l-189 0
35 48 c38 53 50 72 45 72 -3 0 -20 -21 -39 -47z"/>
<path d="M2506 3474 c-9 -36 1 -61 27 -68 29 -8 805 -8 834 0 25 7 37 34 29
62 -5 16 -33 17 -426 14 -267 -1 -427 1 -439 8 -16 8 -20 5 -25 -16z"/>
<path d="M4350 3462 c0 -31 5 -44 20 -52 13 -7 198 -9 557 -8 l538 3 3 40 3
40 -547 -3 c-402 -2 -550 0 -560 9 -12 9 -14 4 -14 -29z"/>
<path d="M1196 5736 c3 -9 1 -16 -5 -16 -6 0 -11 -7 -11 -15 0 -20 -9 -19 -33
3 -20 17 -20 17 -2 -11 17 -26 17 -40 6 -205 -6 -97 -14 -222 -17 -277 -3 -55
-12 -112 -19 -127 -8 -16 -9 -28 -5 -28 18 0 -2 -28 -28 -39 l-27 -12 25 20
c32 25 25 31 -27 22 -23 -5 -40 -5 -38 0 3 4 1 10 -5 14 -19 12 -10 -52 11
-79 28 -36 86 -36 120 0 22 24 24 34 31 202 4 97 14 242 23 322 17 169 19 226
5 235 -6 3 -7 -1 -4 -9z m-22 -258 c-6 -45 -14 -48 -14 -5 0 21 4 37 9 37 4 0
7 -14 5 -32z m-7 -80 c-3 -7 -5 -2 -5 12 0 14 2 19 5 13 2 -7 2 -19 0 -25z
m-10 -180 c-2 -18 -4 -4 -4 32 0 36 2 50 4 33 2 -18 2 -48 0 -65z m3 -83 c0
-8 -4 -15 -10 -15 -5 0 -10 7 -10 15 0 8 5 15 10 15 6 0 10 -7 10 -15z m-20
-130 c0 -8 -4 -16 -9 -19 -5 -3 -8 5 -7 18 1 25 16 26 16 1z m-100 -16 c0 -6
-4 -7 -10 -4 -5 3 -10 11 -10 16 0 6 5 7 10 4 6 -3 10 -11 10 -16z"/>
<path d="M9260 4145 c-31 -32 -59 -48 -45 -25 4 6 -1 7 -11 3 -13 -5 -15 -3
-9 7 5 8 4 11 -2 7 -6 -4 -16 -21 -22 -37 -6 -18 -6 -28 -1 -25 6 4 10 13 10
22 0 12 3 13 13 5 15 -13 60 14 90 54 26 34 16 30 -23 -11z"/>
<path d="M1281 4874 c0 -11 3 -14 6 -6 3 7 2 16 -1 19 -3 4 -6 -2 -5 -13z"/>
<path d="M1292 4820 c0 -14 2 -19 5 -12 2 6 2 18 0 25 -3 6 -5 1 -5 -13z"/>
<path d="M1312 4660 c0 -14 2 -19 5 -12 2 6 2 18 0 25 -3 6 -5 1 -5 -13z"/>
<path d="M1321 4584 c1 -21 5 -50 9 -64 5 -16 6 -2 3 35 -7 69 -13 86 -12 29z"/>
<path d="M1331 4410 l2 -75 10 63 c7 46 7 66 -2 75 -8 8 -11 -7 -10 -63z"/>
<path d="M8978 5015 c-33 -137 -91 -589 -83 -650 3 -31 9 -54 12 -51 4 3 8 43
9 88 2 46 11 137 19 203 38 284 46 343 57 390 17 80 4 98 -14 20z"/>
<path d="M1188 4383 c7 -3 16 -2 19 1 4 3 -2 6 -13 5 -11 0 -14 -3 -6 -6z"/>
<path d="M1255 4285 c6 -59 16 -105 26 -111 5 -3 9 -13 9 -22 0 -29 -17 1 -35
63 -10 33 -22 64 -27 70 -12 14 -10 3 16 -82 54 -172 126 -430 126 -450 0 -23
-15 -38 -45 -47 -11 -3 -5 -4 13 -2 45 4 41 -19 -5 -32 -34 -9 -36 -11 -15
-17 21 -7 21 -8 5 -21 -10 -7 -13 -14 -7 -14 7 0 15 -8 19 -17 5 -15 4 -16 -6
-5 -7 6 -18 12 -24 12 -5 0 -1 -7 9 -15 43 -33 107 -7 121 47 4 14 -9 73 -29
138 -19 63 -55 192 -81 285 -26 94 -53 190 -60 215 l-14 45 4 -40z m145 -680
c-7 -8 -22 -15 -34 -15 -20 1 -20 2 4 15 33 19 46 19 30 0z"/>
<path d="M9030 4379 c0 -5 5 -7 10 -4 6 3 10 8 10 11 0 2 -4 4 -10 4 -5 0 -10
-5 -10 -11z"/>
<path d="M8956 4209 c-63 -228 -118 -414 -142 -476 -29 -80 -30 -93 -3 -127
16 -20 29 -26 59 -26 41 0 62 14 84 58 19 37 31 82 17 62 -10 -13 -11 -13 -11
0 -1 12 -3 11 -11 -2 -12 -22 -52 -23 -69 -3 -18 22 -9 72 59 313 53 189 87
343 62 287 -8 -20 -8 -20 -12 -1 -2 11 -17 -27 -33 -85z"/>
<path d="M8745 3759 c-4 -6 -5 -12 -2 -15 2 -3 7 2 10 11 7 17 1 20 -8 4z"/>
<path d="M8846 3063 c-6 -14 -5 -15 5 -6 7 7 10 15 7 18 -3 3 -9 -2 -12 -12z"/>
<path d="M8816 3003 c-6 -14 -5 -15 5 -6 7 7 10 15 7 18 -3 3 -9 -2 -12 -12z"/>
<path d="M8790 2960 c-6 -11 -8 -20 -6 -20 3 0 10 9 16 20 6 11 8 20 6 20 -3
0 -10 -9 -16 -20z"/>
<path d="M8744 2899 c-33 -35 -94 -69 -123 -69 -11 0 -22 -4 -25 -9 -3 -4 7
-6 22 -4 22 3 20 0 -13 -16 -22 -11 -33 -20 -25 -21 8 -1 4 -6 -10 -11 -19 -7
-16 -7 14 -3 46 6 140 50 158 72 11 15 11 15 -2 5 -10 -8 -21 -9 -30 -3 -8 6
-10 10 -5 10 9 0 81 80 72 80 -2 0 -16 -14 -33 -31z"/>
<path d="M1531 2864 c9 -8 37 -23 64 -33 l49 -18 -30 -16 c-16 -9 -24 -17 -19
-17 6 0 29 -5 53 -9 23 -5 42 -6 42 -2 0 17 -50 65 -71 68 -13 2 -42 12 -63
23 -27 13 -35 15 -25 4z"/>
<path d="M1550 2806 c0 -2 7 -7 16 -10 8 -3 12 -2 9 4 -6 10 -25 14 -25 6z"/>
<path d="M1766 3042 c-12 -20 156 -257 224 -317 13 -11 -2 12 -33 50 -58 72
-72 98 -37 68 11 -10 20 -23 20 -29 0 -6 12 -20 27 -29 21 -14 16 -4 -22 45
-27 35 -51 58 -53 52 -2 -7 -8 -9 -14 -6 -7 4 -6 9 2 14 8 5 -5 30 -44 84 -59
78 -62 81 -70 68z"/>
<path d="M2059 2622 c6 -12 16 -24 22 -28 8 -4 8 -1 0 14 -6 12 -16 24 -22 28
-8 4 -8 1 0 -14z"/>
<path d="M8509 3083 c-1 -5 -1 -12 0 -16 1 -5 -3 -6 -8 -3 -12 8 -86 -70 -86
-89 0 -8 -4 -17 -9 -22 -5 -5 -6 -2 -2 7 5 8 -3 2 -17 -15 -13 -16 -22 -36
-19 -44 3 -9 1 -12 -6 -7 -6 3 -14 1 -18 -5 -4 -8 -3 -9 4 -5 13 8 16 -5 5
-20 -5 -5 3 2 17 17 14 14 47 56 73 94 26 37 57 69 68 72 10 3 19 9 19 14 0 6
10 14 23 19 20 8 19 9 -10 9 -18 1 -34 -2 -34 -6z"/>
<path d="M8593 3006 c-13 -12 -23 -27 -23 -34 0 -22 -289 -390 -358 -455 -40
-39 -67 -33 -66 13 0 19 4 44 8 55 7 19 7 19 -7 3 -8 -10 -17 -18 -20 -18 -4
0 -4 8 0 18 7 21 -3 11 -41 -41 -40 -55 -45 -99 -13 -131 18 -18 37 -26 61
-26 31 0 42 9 109 88 41 48 101 121 133 163 33 42 93 121 135 175 87 114 111
156 107 188 l-3 23 -22 -21z"/>
<path d="M2308 2668 c6 -6 20 -13 29 -14 16 -2 16 -1 -1 12 -24 17 -45 19 -28
2z"/>
<path d="M2029 2328 c7 -10 10 -18 5 -18 -4 0 2 -9 14 -20 12 -12 22 -24 22
-28 0 -4 -16 10 -35 30 -19 21 -35 32 -35 25 -1 -21 441 -449 457 -443 8 3 11
1 8 -4 -6 -10 68 -49 94 -50 7 0 -11 19 -40 42 -30 24 -138 125 -240 226 -102
100 -189 179 -194 175 -4 -5 -5 -3 -2 3 3 6 -10 26 -30 45 -21 19 -31 26 -24
17z m106 -128 c27 -27 47 -50 44 -50 -3 0 -27 23 -54 50 -27 28 -47 50 -44 50
3 0 27 -22 54 -50z m146 -145 c17 -19 35 -35 40 -35 5 0 30 -20 56 -45 26 -24
42 -45 36 -45 -7 0 -13 5 -13 11 0 5 -4 8 -8 5 -5 -3 -42 29 -82 69 -41 41
-71 75 -67 75 4 0 21 -16 38 -35z"/>
<path d="M8055 2187 c-116 -116 -248 -247 -295 -290 -70 -63 -79 -75 -54 -68
67 19 108 52 312 254 198 197 261 274 250 307 -2 6 -98 -86 -213 -203z"/>
<path d="M7934 1878 l-19 -23 23 19 c21 18 27 26 19 26 -2 0 -12 -10 -23 -22z"/>
<path d="M2574 1939 c9 -46 48 -82 198 -180 253 -167 398 -249 441 -249 29 0
73 33 82 60 12 37 -44 110 -84 110 -12 0 -12 -3 -3 -12 34 -34 -6 -96 -55 -83
-36 9 -212 110 -343 198 -102 69 -190 145 -190 167 0 5 -4 10 -9 10 -5 0 -17
3 -27 7 -15 5 -16 2 -10 -28z"/>
<path d="M7655 1993 c5 -20 2 -23 -19 -23 -13 0 -27 6 -29 13 -2 6 -3 0 -1
-16 7 -57 -17 -81 -212 -208 -136 -89 -295 -169 -333 -169 -36 0 -54 22 -49
59 5 32 -1 32 -40 -3 -39 -34 -44 -52 -27 -86 35 -68 78 -66 223 11 119 64
410 246 450 283 47 42 66 111 41 146 -8 12 -9 10 -4 -7z"/>
<path d="M3238 1853 c6 -2 18 -2 25 0 6 3 1 5 -13 5 -14 0 -19 -2 -12 -5z"/>
<path d="M3140 1836 c-34 -12 -34 -13 -12 -25 14 -7 28 -8 40 -3 9 6 41 13 70
17 29 4 52 8 50 10 -13 11 -119 12 -148 1z"/>
<path d="M3378 1833 c7 -3 16 -2 19 1 4 3 -2 6 -13 5 -11 0 -14 -3 -6 -6z"/>
<path d="M3450 1810 c8 -5 20 -10 25 -10 6 0 3 5 -5 10 -8 5 -19 10 -25 10 -5
0 -3 -5 5 -10z"/>
<path d="M3507 1789 c7 -7 15 -10 18 -7 3 3 -2 9 -12 12 -14 6 -15 5 -6 -5z"/>
<path d="M3550 1770 c8 -5 20 -10 25 -10 6 0 3 5 -5 10 -8 5 -19 10 -25 10 -5
0 -3 -5 5 -10z"/>
<path d="M3820 1660 c8 -5 20 -10 25 -10 6 0 3 5 -5 10 -8 5 -19 10 -25 10 -5
0 -3 -5 5 -10z"/>
<path d="M3860 1646 c0 -2 7 -9 15 -16 9 -7 15 -8 15 -2 0 5 -7 12 -15 16 -8
3 -15 4 -15 2z"/>
<path d="M6765 1810 c3 -5 10 -10 16 -10 5 0 9 5 9 10 0 6 -7 10 -16 10 -8 0
-12 -4 -9 -10z"/>
<path d="M4913 1433 c15 -2 37 -2 50 0 12 2 0 4 -28 4 -27 0 -38 -2 -22 -4z"/>
<path d="M4570 1420 c-8 -5 -10 -10 -5 -10 6 0 17 5 25 10 8 5 11 10 5 10 -5
0 -17 -5 -25 -10z"/>
<path d="M3805 1350 c-9 -14 -9 -61 -1 -87 4 -11 22 -28 41 -37 39 -19 234
-62 425 -96 69 -12 168 -30 220 -41 132 -26 175 -25 205 6 14 13 25 36 25 50
0 27 -40 75 -62 75 -10 0 -10 -2 1 -9 9 -6 10 -11 2 -15 -6 -4 -15 -5 -20 -2
-4 3 -6 -6 -3 -19 6 -33 -14 -55 -50 -55 -43 0 -349 55 -520 94 -149 33 -197
53 -205 87 -3 12 -14 19 -29 19 -17 0 -22 5 -19 20 4 22 0 26 -10 10z"/>
<path d="M6384 1347 c-24 -17 -31 -29 -30 -52 1 -29 -1 -31 -69 -48 -235 -59
-569 -127 -627 -127 -48 0 -70 28 -57 73 5 17 8 32 6 33 -1 1 -18 -3 -37 -10
-61 -20 -68 -101 -10 -131 51 -27 54 -26 560 76 250 50 262 54 299 88 35 33
42 79 15 105 -8 9 -16 16 -17 15 -1 0 -16 -11 -33 -22z m-577 -223 c-3 -3 -12
-4 -19 -1 -8 3 -5 6 6 6 11 1 17 -2 13 -5z"/>
</g>
</svg>
